<svg width="700" height="600" viewBox="0 0 700 600" fill="none" xmlns="http://www.w3.org/2000/svg">
<g clip-path="url(#clip0_1_27)">
<path fill-rule="evenodd" clip-rule="evenodd" d="M272.669 239.276C238.982 239.276 211.674 266.575 211.674 300.25C211.674 333.925 238.982 361.224 272.669 361.224H335.313V300.25V239.276H272.669ZM425.982 209.612L427.631 209.612C461.318 209.612 488.626 182.313 488.626 148.638C488.626 114.962 461.318 87.6633 427.631 87.6633H364.987V209.612L425.982 209.612ZM477.352 224.444C502.016 208.245 518.3 180.343 518.3 148.638C518.3 98.5799 477.706 58 427.631 58H364.987H350.15H335.313H272.669C222.594 58 182 98.5799 182 148.638C182 180.343 198.284 208.245 222.948 224.444C198.284 240.642 182 268.545 182 300.25C182 331.955 198.284 359.858 222.948 376.056C198.284 392.255 182 420.157 182 451.862C182 502.024 223.108 542.5 273.079 542.5C323.505 542.5 364.987 501.655 364.987 451.038V390.888V376.056V367.313C381.092 381.96 402.494 390.888 425.982 390.888H427.631C477.706 390.888 518.3 350.308 518.3 300.25C518.3 268.545 502.016 240.642 477.352 224.444ZM427.631 239.276L425.982 239.276C392.295 239.276 364.987 266.575 364.987 300.25C364.987 333.925 392.295 361.224 425.982 361.224H427.631C461.318 361.224 488.626 333.925 488.626 300.25C488.626 266.575 461.318 239.276 427.631 239.276ZM211.674 451.862C211.674 418.187 238.982 390.888 272.669 390.888H335.313V451.038C335.313 485.065 307.325 512.837 273.079 512.837C239.288 512.837 211.674 485.434 211.674 451.862ZM335.313 209.612H272.669C238.982 209.612 211.674 182.313 211.674 148.638C211.674 114.962 238.982 87.6633 272.669 87.6633H335.313V209.612Z" fill="#42571F"/>
</g>
<defs>
<clipPath id="clip0_1_27">
<rect width="700" height="600" fill="white"/>
</clipPath>
</defs>
</svg>
