<svg width="413" height="432" viewBox="0 0 413 432" fill="none" xmlns="http://www.w3.org/2000/svg">
<path d="M211.5 38.5C305.321 38.5 381.5 115.216 381.5 210C381.5 304.784 305.321 381.5 211.5 381.5C117.679 381.5 41.5 304.784 41.5 210C41.5 115.216 117.679 38.5 211.5 38.5Z" stroke="#4A5E2A" stroke-width="17"/>
<line x1="36" y1="210.5" x2="378" y2="210.5" stroke="#4A5E2A" stroke-width="17"/>
<path d="M61 293.5H365" stroke="#4A5E2A" stroke-width="17"/>
<path d="M61 127H365" stroke="#4A5E2A" stroke-width="17"/>
<path d="M213.5 39C60.6444 60.3924 59.8619 360.438 213.5 381" stroke="#4A5E2A" stroke-width="15"/>
<path d="M214 39C357.632 60.3924 358.367 360.438 214 381" stroke="#4A5E2A" stroke-width="15"/>
<path d="M213 38C149 89.5 149 329.5 213 381" stroke="#4A5E2A" stroke-width="15"/>
<path d="M213 38C269 89.5 269 329.5 213 381" stroke="#4A5E2A" stroke-width="15"/>
</svg>
