<svg width="621" height="1040" viewBox="0 0 621 1040" fill="none" xmlns="http://www.w3.org/2000/svg">
<path d="M324.25 141C325.25 143.5 323.75 146.5 321.25 147.25C317.75 148.75 312.25 150.75 305.75 153.25C303.25 154.25 300.5 153 299.25 150.5C296.75 144.25 292.5 135.5 288.5 128C287 125.25 288.25 122 291 121C295.75 119 302 116.5 306.25 114.75C308.25 114 310.75 114.75 312.25 116.5C317 124 321.75 133.75 324.25 141ZM347 98.5C349.25 97.75 351.75 98.5 353 100.25C358 107.75 362.5 117.5 365 124.75C366 127.25 364.5 130 362 131C358.5 132.5 353 134.5 346.5 137C344 138 341.25 136.75 340.25 134.25C337.5 128 333.25 119.25 329.25 111.75C327.75 109 329 105.75 331.75 104.75C336.5 102.75 342.75 100.25 347 98.5ZM258.75 229C279.75 206.75 293.5 186.75 301 174.25C302.5 172 305.75 171.25 308.25 173L337 193.75C338.75 195.25 339.5 197.75 338.5 199.75C332 213.75 321.75 231.25 291 261.5C260 292 236.5 305.25 224.75 310.5C222.75 311.5 220.25 311 219 309.25L199.5 285.75C197.5 283.5 198 280 200.5 278.25C213.5 270.25 234.25 255 258.75 229ZM224.75 193L210.5 225C209.5 227.25 206.75 228.5 204.5 227.75C199 225.75 190.25 222.5 178.5 218.75C169.25 215.75 160.25 213 153.75 211C151 210 149.5 207 150.5 204.5L163.5 172.25C164.25 170 166.75 168.75 169.25 169.5C174.75 170.75 183.5 173 196 177.25C208.25 181 216.5 184.25 222 186.5C224.75 187.5 225.75 190.5 224.75 193ZM241.5 164.75C240.5 167.25 237.75 168.25 235.25 167.5C229.5 165.5 221 162.5 209.25 158.5C200 155.75 191 153 184.5 151C181.75 150.25 180.25 147.25 181.25 144.5L194 112.25C195 110 197.5 108.75 199.75 109.25C205.5 110.75 214.25 113 226.75 117C238.75 121 247.25 124.25 252.75 126.25C255.25 127.25 256.5 130.25 255.25 133L241.5 164.75Z" fill="#B0BE98"/>
<path d="M459.658 421.557C439.368 416.538 358.108 396.892 339.959 392.379C338.032 391.924 336.888 390.072 337.343 388.145L343.587 363.623C344.042 361.696 345.895 360.552 347.822 361.007C359.384 363.738 377.848 367.873 390.908 370.958C397.331 372.475 411.034 375.712 411.034 375.712C414.634 365.259 422.618 339.114 424.897 325.637C424.897 325.637 389.09 317.406 370.198 313.169C368.271 312.714 367.126 310.861 367.581 308.934L373.347 284.526C373.751 282.813 375.44 281.404 377.367 281.859C384.269 283.263 396.361 285.667 417.557 290.674C421.462 291.37 449.674 298.26 463.653 302.24C465.366 302.644 466.511 304.497 466.106 306.21C464.613 314.447 461.691 327.773 457.077 346.349C450.643 372.634 446.903 384.636 446.903 384.636C446.903 384.636 460.556 388.087 467.621 389.756C469.548 390.211 470.643 392.278 470.187 394.205L464.107 418.991C463.652 420.918 461.585 422.012 459.658 421.557Z" fill="#F9B57D"/>
<path d="M283.5 445.5C286 445.75 288 447.5 288.25 450.25C289.5 467 290.25 497.5 286.25 535.5C282 578.25 271 610 265.5 623.75C264.75 626 262.5 627.25 260.25 627L222.25 622C219 621.5 217 618.25 218.25 615.25C224.75 599 234 568.25 237.75 522.5C239.5 500.5 239.25 467.25 239 449.75C239 447 241.25 444.75 244 444.75L283.5 445.5ZM176.75 450C179.5 450 181.75 452.25 181.75 455C181.5 467 181.25 483.5 181 501.25C180.75 522 181 540.75 181 553.5C181 556.25 179 558.5 176.25 558.5L132.75 559C130 559 128 556.75 127.75 554.25C127.25 542.75 127 524.75 127.25 505.5C127.5 483 128.25 465.25 128.75 454.25C128.75 451.5 131 449.5 133.75 449.5L176.75 450Z" fill="#F7C956"/>
<path d="M393.91 695.777C404.437 697.97 427.995 702.563 437.538 704.575C439.997 705.028 441.601 707.358 441.394 709.861C440.728 717.619 438.684 731.478 433.178 753.088C426.928 777.358 419.727 797.13 415.412 806.758C414.467 809.126 411.983 810.194 409.569 809.495C400.362 807.036 377.122 800.722 366.44 797.992C363.78 797.248 362.066 794.136 363.101 791.276C367.915 778.944 375.141 757.651 380.511 736.778C384.911 719.794 386.884 707.701 388.087 699.788C388.339 697.039 391.251 695.033 393.91 695.777ZM448.025 626.941C491.588 634.711 529.024 642.623 547.192 647.495C549.851 648.239 551.611 651.105 550.576 653.965C547.108 664.511 540.742 681.133 530.727 699.624C517.612 723.9 506.109 738.051 499.205 745.168C497.613 746.908 495.265 747.238 493.188 746.093L462.079 728.67C459.556 727.188 458.87 724.011 460.352 721.488C471.661 704.251 486.012 677.407 486.012 677.407L437.039 668.641C408.273 663.342 374.499 657.629 356.707 654.861C354.002 654.362 352.197 651.742 352.695 649.038C354.189 640.924 357.088 625.189 358.291 617.276C358.789 614.571 361.364 613.012 363.868 613.219C378.219 615.354 405.154 619.553 448.025 626.941Z" fill="#A7CAE0"/>
<path d="M248.729 928.629C246.307 929.956 243.253 928.998 242.133 926.437L226.831 897.863C225.711 895.302 226.462 892.386 228.884 891.059L272.613 868.277C274.966 867.297 277.881 868.047 279.209 870.469C283.051 877.526 290.528 891.779 294.371 898.836C295.698 901.257 294.74 904.312 292.318 905.639L248.729 928.629ZM254.056 840.687L217.041 860.46C214.827 861.648 211.912 860.897 210.584 858.475C204.86 849.069 192.017 828.181 181.821 810.333C162.756 777.059 155.841 764.537 150.743 755.613C149.415 753.192 150.374 750.137 152.795 748.81L197.701 725.537C200.122 724.21 203.177 725.168 204.504 727.59C208.629 735.963 217.366 752.985 229.952 778.866C245.125 809.937 252.821 826.755 256.388 834.298C257.368 836.651 256.478 839.359 254.056 840.687Z" fill="#FFCDA7"/>
</svg>
