<svg width="1728" height="782" viewBox="0 0 1728 782" fill="none" xmlns="http://www.w3.org/2000/svg">
<rect x="71.5693" y="242.5" width="475" height="475" rx="28.5" fill="#FFECDD" stroke="#282F4A" stroke-width="3"/>
<path d="M158.03 403.339C157.549 401.831 156.903 400.48 156.091 399.287C155.295 398.077 154.342 397.05 153.232 396.205C152.122 395.343 150.854 394.688 149.429 394.241C148.02 393.794 146.471 393.57 144.78 393.57C141.913 393.57 139.328 394.307 137.025 395.782C134.721 397.257 132.898 399.42 131.556 402.27C130.23 405.104 129.567 408.576 129.567 412.686C129.567 416.812 130.238 420.3 131.581 423.151C132.923 426.001 134.763 428.164 137.099 429.639C139.436 431.114 142.096 431.851 145.079 431.851C147.846 431.851 150.257 431.288 152.312 430.161C154.384 429.034 155.983 427.443 157.11 425.388C158.253 423.317 158.825 420.88 158.825 418.08L160.814 418.453H146.247V412.114H166.258V417.906C166.258 422.181 165.346 425.893 163.523 429.042C161.717 432.174 159.214 434.594 156.016 436.301C152.834 438.008 149.188 438.861 145.079 438.861C140.472 438.861 136.428 437.8 132.948 435.679C129.484 433.558 126.783 430.55 124.844 426.656C122.905 422.745 121.936 418.105 121.936 412.735C121.936 408.675 122.499 405.029 123.626 401.798C124.753 398.566 126.336 395.824 128.374 393.57C130.429 391.3 132.84 389.568 135.608 388.375C138.392 387.165 141.433 386.56 144.731 386.56C147.482 386.56 150.042 386.966 152.412 387.778C154.798 388.59 156.919 389.742 158.775 391.233C160.648 392.725 162.197 394.498 163.424 396.553C164.65 398.591 165.479 400.853 165.91 403.339H158.03ZM227.23 412.71C227.23 418.146 226.236 422.819 224.247 426.73C222.259 430.625 219.533 433.624 216.069 435.729C212.622 437.817 208.703 438.861 204.311 438.861C199.903 438.861 195.967 437.817 192.504 435.729C189.057 433.624 186.339 430.617 184.35 426.706C182.362 422.795 181.367 418.13 181.367 412.71C181.367 407.275 182.362 402.61 184.35 398.715C186.339 394.804 189.057 391.805 192.504 389.717C195.967 387.612 199.903 386.56 204.311 386.56C208.703 386.56 212.622 387.612 216.069 389.717C219.533 391.805 222.259 394.804 224.247 398.715C226.236 402.61 227.23 407.275 227.23 412.71ZM219.624 412.71C219.624 408.568 218.953 405.079 217.61 402.245C216.285 399.395 214.462 397.241 212.142 395.782C209.838 394.307 207.228 393.57 204.311 393.57C201.378 393.57 198.76 394.307 196.456 395.782C194.153 397.241 192.33 399.395 190.987 402.245C189.662 405.079 188.999 408.568 188.999 412.71C188.999 416.853 189.662 420.35 190.987 423.201C192.33 426.034 194.153 428.189 196.456 429.664C198.76 431.122 201.378 431.851 204.311 431.851C207.228 431.851 209.838 431.122 212.142 429.664C214.462 428.189 216.285 426.034 217.61 423.201C218.953 420.35 219.624 416.853 219.624 412.71ZM288.029 412.71C288.029 418.146 287.035 422.819 285.046 426.73C283.058 430.625 280.332 433.624 276.868 435.729C273.421 437.817 269.502 438.861 265.11 438.861C260.702 438.861 256.766 437.817 253.303 435.729C249.856 433.624 247.138 430.617 245.149 426.706C243.161 422.795 242.166 418.13 242.166 412.71C242.166 407.275 243.161 402.61 245.149 398.715C247.138 394.804 249.856 391.805 253.303 389.717C256.766 387.612 260.702 386.56 265.11 386.56C269.502 386.56 273.421 387.612 276.868 389.717C280.332 391.805 283.058 394.804 285.046 398.715C287.035 402.61 288.029 407.275 288.029 412.71ZM280.423 412.71C280.423 408.568 279.752 405.079 278.409 402.245C277.083 399.395 275.261 397.241 272.94 395.782C270.637 394.307 268.027 393.57 265.11 393.57C262.177 393.57 259.559 394.307 257.255 395.782C254.952 397.241 253.129 399.395 251.786 402.245C250.461 405.079 249.798 408.568 249.798 412.71C249.798 416.853 250.461 420.35 251.786 423.201C253.129 426.034 254.952 428.189 257.255 429.664C259.559 431.122 262.177 431.851 265.11 431.851C268.027 431.851 270.637 431.122 272.94 429.664C275.261 428.189 277.083 426.034 278.409 423.201C279.752 420.35 280.423 416.853 280.423 412.71ZM332.372 400.63C332.107 398.276 331.013 396.453 329.091 395.161C327.168 393.852 324.749 393.197 321.832 393.197C319.744 393.197 317.938 393.528 316.413 394.191C314.889 394.838 313.704 395.733 312.859 396.876C312.03 398.003 311.616 399.287 311.616 400.729C311.616 401.939 311.897 402.983 312.461 403.861C313.041 404.739 313.795 405.477 314.723 406.073C315.668 406.653 316.678 407.142 317.756 407.54C318.833 407.921 319.869 408.236 320.863 408.485L325.834 409.777C327.458 410.175 329.124 410.714 330.831 411.393C332.538 412.072 334.12 412.967 335.579 414.078C337.037 415.188 338.214 416.563 339.109 418.204C340.02 419.845 340.476 421.809 340.476 424.095C340.476 426.979 339.73 429.539 338.239 431.777C336.764 434.014 334.618 435.779 331.8 437.071C329 438.364 325.611 439.01 321.633 439.01C317.822 439.01 314.524 438.405 311.74 437.196C308.956 435.986 306.777 434.271 305.202 432.05C303.628 429.813 302.758 427.161 302.592 424.095H310.298C310.447 425.935 311.044 427.468 312.088 428.694C313.149 429.904 314.499 430.807 316.14 431.404C317.797 431.984 319.612 432.274 321.584 432.274C323.755 432.274 325.685 431.934 327.376 431.255C329.083 430.559 330.425 429.597 331.403 428.371C332.38 427.128 332.869 425.678 332.869 424.021C332.869 422.513 332.438 421.278 331.577 420.317C330.731 419.356 329.58 418.56 328.121 417.931C326.68 417.301 325.047 416.746 323.224 416.265L317.209 414.625C313.132 413.514 309.9 411.882 307.514 409.728C305.144 407.573 303.959 404.723 303.959 401.176C303.959 398.243 304.755 395.683 306.346 393.495C307.937 391.308 310.091 389.609 312.809 388.399C315.527 387.173 318.592 386.56 322.006 386.56C325.453 386.56 328.494 387.165 331.129 388.375C333.781 389.584 335.869 391.25 337.393 393.371C338.918 395.476 339.713 397.895 339.78 400.63H332.372ZM356.655 438.165V387.256H388.572V393.868H364.336V409.38H386.907V415.967H364.336V431.553H388.87V438.165H356.655Z" fill="#282F4A"/>
<rect x="281.948" y="94.5" width="173.849" height="70" rx="35" fill="#FFD8B9" stroke="#35284A" stroke-width="3"/>
<path d="M329.712 132.035H323.826V113.853H329.898C331.679 113.853 333.209 114.217 334.488 114.945C335.766 115.667 336.746 116.706 337.426 118.061C338.113 119.41 338.456 121.029 338.456 122.917C338.456 124.811 338.11 126.439 337.418 127.8C336.731 129.161 335.737 130.209 334.435 130.943C333.132 131.671 331.558 132.035 329.712 132.035ZM326.569 129.638H329.561C330.946 129.638 332.097 129.377 333.014 128.856C333.932 128.33 334.618 127.569 335.074 126.575C335.53 125.575 335.757 124.355 335.757 122.917C335.757 121.491 335.53 120.28 335.074 119.286C334.624 118.292 333.952 117.537 333.059 117.022C332.165 116.507 331.055 116.25 329.729 116.25H326.569V129.638ZM350.032 132.31C348.688 132.31 347.531 132.023 346.56 131.449C345.596 130.869 344.85 130.055 344.323 129.007C343.802 127.954 343.542 126.72 343.542 125.305C343.542 123.908 343.802 122.677 344.323 121.612C344.85 120.547 345.584 119.715 346.525 119.117C347.472 118.52 348.579 118.221 349.845 118.221C350.615 118.221 351.36 118.348 352.082 118.602C352.804 118.857 353.453 119.256 354.027 119.801C354.601 120.346 355.054 121.053 355.385 121.923C355.716 122.787 355.882 123.837 355.882 125.074V126.015H345.042V124.027H353.281C353.281 123.328 353.139 122.71 352.855 122.171C352.571 121.627 352.171 121.198 351.656 120.884C351.147 120.57 350.549 120.414 349.863 120.414C349.117 120.414 348.466 120.597 347.91 120.964C347.359 121.325 346.933 121.799 346.631 122.384C346.335 122.964 346.188 123.595 346.188 124.275V125.829C346.188 126.741 346.347 127.516 346.667 128.155C346.992 128.794 347.445 129.283 348.025 129.62C348.605 129.951 349.283 130.117 350.058 130.117C350.561 130.117 351.02 130.046 351.434 129.904C351.849 129.756 352.207 129.537 352.509 129.247C352.81 128.957 353.041 128.599 353.201 128.173L355.713 128.626C355.512 129.365 355.151 130.013 354.63 130.57C354.115 131.12 353.467 131.549 352.686 131.857C351.911 132.159 351.026 132.31 350.032 132.31ZM371.546 121.727L369.14 122.154C369.039 121.846 368.879 121.553 368.66 121.275C368.447 120.997 368.157 120.769 367.79 120.591C367.423 120.414 366.965 120.325 366.414 120.325C365.663 120.325 365.035 120.493 364.532 120.831C364.029 121.162 363.778 121.591 363.778 122.118C363.778 122.574 363.946 122.941 364.284 123.219C364.621 123.497 365.166 123.725 365.917 123.903L368.083 124.4C369.338 124.69 370.273 125.137 370.889 125.74C371.504 126.344 371.812 127.128 371.812 128.093C371.812 128.91 371.575 129.638 371.102 130.277C370.634 130.91 369.98 131.407 369.14 131.768C368.305 132.129 367.338 132.31 366.237 132.31C364.71 132.31 363.464 131.984 362.499 131.333C361.534 130.676 360.943 129.744 360.724 128.537L363.289 128.146C363.449 128.815 363.778 129.321 364.275 129.664C364.772 130.002 365.42 130.17 366.219 130.17C367.089 130.17 367.784 129.99 368.305 129.629C368.826 129.262 369.087 128.815 369.087 128.288C369.087 127.862 368.927 127.504 368.607 127.214C368.293 126.924 367.811 126.705 367.16 126.557L364.852 126.051C363.579 125.761 362.638 125.299 362.029 124.666C361.425 124.033 361.123 123.231 361.123 122.26C361.123 121.455 361.348 120.751 361.798 120.147C362.248 119.544 362.869 119.073 363.662 118.736C364.455 118.392 365.364 118.221 366.388 118.221C367.861 118.221 369.021 118.54 369.868 119.18C370.714 119.813 371.273 120.662 371.546 121.727ZM377.231 132.035V118.398H379.885V132.035H377.231ZM378.571 116.294C378.11 116.294 377.713 116.14 377.382 115.833C377.056 115.519 376.893 115.146 376.893 114.714C376.893 114.276 377.056 113.903 377.382 113.595C377.713 113.282 378.11 113.125 378.571 113.125C379.033 113.125 379.426 113.282 379.752 113.595C380.083 113.903 380.249 114.276 380.249 114.714C380.249 115.146 380.083 115.519 379.752 115.833C379.426 116.14 379.033 116.294 378.571 116.294ZM391.674 137.432C390.59 137.432 389.658 137.29 388.877 137.006C388.102 136.722 387.468 136.346 386.977 135.879C386.486 135.411 386.119 134.899 385.876 134.343L388.158 133.402C388.318 133.662 388.531 133.937 388.797 134.227C389.069 134.523 389.436 134.775 389.898 134.982C390.366 135.189 390.966 135.293 391.7 135.293C392.706 135.293 393.538 135.047 394.195 134.556C394.852 134.071 395.18 133.295 395.18 132.23V129.549H395.012C394.852 129.839 394.621 130.161 394.319 130.517C394.023 130.872 393.615 131.179 393.094 131.44C392.573 131.7 391.896 131.83 391.061 131.83C389.984 131.83 389.013 131.579 388.149 131.076C387.291 130.567 386.61 129.818 386.107 128.83C385.61 127.835 385.361 126.613 385.361 125.163C385.361 123.713 385.607 122.47 386.098 121.435C386.595 120.399 387.276 119.606 388.14 119.055C389.004 118.499 389.984 118.221 391.079 118.221C391.925 118.221 392.609 118.363 393.13 118.647C393.65 118.925 394.056 119.251 394.346 119.623C394.642 119.996 394.87 120.325 395.029 120.609H395.225V118.398H397.826V132.337C397.826 133.508 397.554 134.47 397.009 135.222C396.465 135.973 395.728 136.53 394.799 136.891C393.875 137.252 392.834 137.432 391.674 137.432ZM391.647 129.629C392.41 129.629 393.056 129.451 393.582 129.096C394.115 128.735 394.517 128.22 394.79 127.551C395.068 126.877 395.207 126.069 395.207 125.128C395.207 124.21 395.071 123.402 394.799 122.704C394.526 122.006 394.127 121.461 393.6 121.071C393.073 120.674 392.422 120.476 391.647 120.476C390.848 120.476 390.182 120.683 389.649 121.097C389.117 121.506 388.714 122.062 388.442 122.766C388.176 123.471 388.043 124.258 388.043 125.128C388.043 126.021 388.179 126.806 388.451 127.48C388.723 128.155 389.126 128.682 389.658 129.061C390.197 129.439 390.86 129.629 391.647 129.629ZM406.54 123.938V132.035H403.886V118.398H406.434V120.618H406.603C406.916 119.896 407.407 119.316 408.076 118.878C408.751 118.44 409.6 118.221 410.624 118.221C411.553 118.221 412.367 118.416 413.066 118.807C413.764 119.191 414.306 119.765 414.69 120.529C415.075 121.292 415.267 122.236 415.267 123.361V132.035H412.613V123.681C412.613 122.692 412.355 121.92 411.84 121.364C411.326 120.801 410.618 120.52 409.719 120.52C409.103 120.52 408.556 120.653 408.076 120.92C407.603 121.186 407.227 121.577 406.949 122.091C406.677 122.6 406.54 123.216 406.54 123.938Z" fill="#35284A"/>
<rect x="281.948" y="94.5" width="173.849" height="70" rx="35" fill="#FFD8B9" stroke="#35284A" stroke-width="3"/>
<path d="M329.712 137H323.826V118.818H329.898C331.679 118.818 333.209 119.182 334.488 119.91C335.766 120.632 336.746 121.671 337.426 123.026C338.113 124.376 338.456 125.994 338.456 127.882C338.456 129.776 338.11 131.404 337.418 132.765C336.731 134.127 335.737 135.174 334.435 135.908C333.132 136.636 331.558 137 329.712 137ZM326.569 134.603H329.561C330.946 134.603 332.097 134.343 333.014 133.822C333.932 133.295 334.618 132.534 335.074 131.54C335.53 130.54 335.757 129.321 335.757 127.882C335.757 126.456 335.53 125.246 335.074 124.251C334.624 123.257 333.952 122.502 333.059 121.988C332.165 121.473 331.055 121.215 329.729 121.215H326.569V134.603ZM350.032 137.275C348.688 137.275 347.531 136.988 346.56 136.414C345.596 135.834 344.85 135.02 344.323 133.973C343.802 132.919 343.542 131.685 343.542 130.271C343.542 128.874 343.802 127.643 344.323 126.577C344.85 125.512 345.584 124.681 346.525 124.083C347.472 123.485 348.579 123.186 349.845 123.186C350.615 123.186 351.36 123.313 352.082 123.568C352.804 123.822 353.453 124.222 354.027 124.766C354.601 125.311 355.054 126.018 355.385 126.888C355.716 127.752 355.882 128.803 355.882 130.04V130.981H345.042V128.992H353.281C353.281 128.294 353.139 127.675 352.855 127.137C352.571 126.592 352.171 126.163 351.656 125.849C351.147 125.536 350.549 125.379 349.863 125.379C349.117 125.379 348.466 125.562 347.91 125.929C347.359 126.29 346.933 126.764 346.631 127.35C346.335 127.93 346.188 128.56 346.188 129.241V130.794C346.188 131.706 346.347 132.481 346.667 133.12C346.992 133.76 347.445 134.248 348.025 134.585C348.605 134.917 349.283 135.082 350.058 135.082C350.561 135.082 351.02 135.011 351.434 134.869C351.849 134.721 352.207 134.502 352.509 134.212C352.81 133.922 353.041 133.564 353.201 133.138L355.713 133.591C355.512 134.331 355.151 134.979 354.63 135.535C354.115 136.086 353.467 136.515 352.686 136.822C351.911 137.124 351.026 137.275 350.032 137.275ZM371.546 126.693L369.14 127.119C369.039 126.811 368.879 126.518 368.66 126.24C368.447 125.962 368.157 125.734 367.79 125.556C367.423 125.379 366.965 125.29 366.414 125.29C365.663 125.29 365.035 125.459 364.532 125.796C364.029 126.128 363.778 126.557 363.778 127.083C363.778 127.539 363.946 127.906 364.284 128.184C364.621 128.462 365.166 128.69 365.917 128.868L368.083 129.365C369.338 129.655 370.273 130.102 370.889 130.706C371.504 131.309 371.812 132.094 371.812 133.058C371.812 133.875 371.575 134.603 371.102 135.242C370.634 135.875 369.98 136.373 369.14 136.734C368.305 137.095 367.338 137.275 366.237 137.275C364.71 137.275 363.464 136.95 362.499 136.299C361.534 135.642 360.943 134.71 360.724 133.502L363.289 133.112C363.449 133.78 363.778 134.286 364.275 134.63C364.772 134.967 365.42 135.136 366.219 135.136C367.089 135.136 367.784 134.955 368.305 134.594C368.826 134.227 369.087 133.78 369.087 133.254C369.087 132.827 368.927 132.469 368.607 132.179C368.293 131.889 367.811 131.67 367.16 131.522L364.852 131.016C363.579 130.726 362.638 130.265 362.029 129.631C361.425 128.998 361.123 128.196 361.123 127.225C361.123 126.421 361.348 125.716 361.798 125.113C362.248 124.509 362.869 124.038 363.662 123.701C364.455 123.358 365.364 123.186 366.388 123.186C367.861 123.186 369.021 123.506 369.868 124.145C370.714 124.778 371.273 125.627 371.546 126.693ZM377.231 137V123.364H379.885V137H377.231ZM378.571 121.26C378.11 121.26 377.713 121.106 377.382 120.798C377.056 120.484 376.893 120.111 376.893 119.679C376.893 119.241 377.056 118.868 377.382 118.561C377.713 118.247 378.11 118.09 378.571 118.09C379.033 118.09 379.426 118.247 379.752 118.561C380.083 118.868 380.249 119.241 380.249 119.679C380.249 120.111 380.083 120.484 379.752 120.798C379.426 121.106 379.033 121.26 378.571 121.26ZM391.674 142.398C390.59 142.398 389.658 142.256 388.877 141.972C388.102 141.688 387.468 141.312 386.977 140.844C386.486 140.377 386.119 139.865 385.876 139.308L388.158 138.367C388.318 138.628 388.531 138.903 388.797 139.193C389.069 139.489 389.436 139.74 389.898 139.947C390.366 140.155 390.966 140.258 391.7 140.258C392.706 140.258 393.538 140.013 394.195 139.521C394.852 139.036 395.18 138.261 395.18 137.195V134.514H395.012C394.852 134.804 394.621 135.127 394.319 135.482C394.023 135.837 393.615 136.145 393.094 136.405C392.573 136.666 391.896 136.796 391.061 136.796C389.984 136.796 389.013 136.544 388.149 136.041C387.291 135.532 386.61 134.783 386.107 133.795C385.61 132.801 385.361 131.579 385.361 130.129C385.361 128.679 385.607 127.436 386.098 126.4C386.595 125.364 387.276 124.571 388.14 124.021C389.004 123.464 389.984 123.186 391.079 123.186C391.925 123.186 392.609 123.328 393.13 123.612C393.65 123.89 394.056 124.216 394.346 124.589C394.642 124.962 394.87 125.29 395.029 125.574H395.225V123.364H397.826V137.302C397.826 138.474 397.554 139.435 397.009 140.187C396.465 140.939 395.728 141.495 394.799 141.856C393.875 142.217 392.834 142.398 391.674 142.398ZM391.647 134.594C392.41 134.594 393.056 134.417 393.582 134.061C394.115 133.7 394.517 133.185 394.79 132.517C395.068 131.842 395.207 131.034 395.207 130.093C395.207 129.176 395.071 128.368 394.799 127.669C394.526 126.971 394.127 126.426 393.6 126.036C393.073 125.639 392.422 125.441 391.647 125.441C390.848 125.441 390.182 125.648 389.649 126.062C389.117 126.471 388.714 127.027 388.442 127.732C388.176 128.436 388.043 129.223 388.043 130.093C388.043 130.987 388.179 131.771 388.451 132.446C388.723 133.12 389.126 133.647 389.658 134.026C390.197 134.405 390.86 134.594 391.647 134.594ZM406.54 128.903V137H403.886V123.364H406.434V125.583H406.603C406.916 124.861 407.407 124.281 408.076 123.843C408.751 123.405 409.6 123.186 410.624 123.186C411.553 123.186 412.367 123.381 413.066 123.772C413.764 124.157 414.306 124.731 414.69 125.494C415.075 126.258 415.267 127.202 415.267 128.326V137H412.613V128.646C412.613 127.658 412.355 126.885 411.84 126.329C411.326 125.767 410.618 125.485 409.719 125.485C409.103 125.485 408.556 125.619 408.076 125.885C407.603 126.151 407.227 126.542 406.949 127.057C406.677 127.566 406.54 128.181 406.54 128.903Z" fill="#35284A"/>
<rect x="1181.53" y="94.5" width="241.868" height="70" rx="35" stroke="#282F4A" stroke-width="3" stroke-dasharray="6 6"/>
<path d="M1238.92 127.731H1236.15C1236.04 127.139 1235.84 126.618 1235.55 126.168C1235.26 125.719 1234.91 125.337 1234.49 125.023C1234.07 124.709 1233.6 124.473 1233.07 124.313C1232.56 124.153 1232.01 124.073 1231.43 124.073C1230.38 124.073 1229.45 124.337 1228.62 124.863C1227.8 125.39 1227.14 126.162 1226.67 127.18C1226.19 128.198 1225.95 129.441 1225.95 130.909C1225.95 132.389 1226.19 133.638 1226.67 134.656C1227.14 135.674 1227.8 136.443 1228.63 136.964C1229.46 137.485 1230.39 137.745 1231.42 137.745C1232 137.745 1232.54 137.668 1233.06 137.514C1233.58 137.354 1234.05 137.121 1234.47 136.813C1234.89 136.505 1235.24 136.129 1235.53 135.685C1235.83 135.236 1236.03 134.721 1236.15 134.141L1238.92 134.15C1238.77 135.043 1238.48 135.866 1238.06 136.618C1237.64 137.363 1237.09 138.008 1236.43 138.553C1235.77 139.092 1235.02 139.509 1234.18 139.805C1233.33 140.101 1232.41 140.249 1231.41 140.249C1229.83 140.249 1228.43 139.876 1227.2 139.13C1225.97 138.378 1225 137.304 1224.29 135.907C1223.58 134.511 1223.23 132.844 1223.23 130.909C1223.23 128.968 1223.58 127.302 1224.29 125.911C1225 124.514 1225.98 123.443 1227.21 122.697C1228.44 121.945 1229.84 121.57 1231.41 121.57C1232.37 121.57 1233.27 121.709 1234.1 121.987C1234.95 122.259 1235.7 122.662 1236.37 123.194C1237.04 123.721 1237.59 124.366 1238.03 125.13C1238.47 125.887 1238.76 126.754 1238.92 127.731ZM1248.45 140.302C1247.59 140.302 1246.81 140.142 1246.11 139.822C1245.41 139.497 1244.86 139.026 1244.45 138.411C1244.05 137.795 1243.85 137.041 1243.85 136.147C1243.85 135.378 1243.99 134.744 1244.29 134.247C1244.59 133.75 1244.99 133.356 1245.49 133.066C1245.99 132.776 1246.55 132.557 1247.18 132.409C1247.8 132.261 1248.43 132.149 1249.08 132.072C1249.89 131.977 1250.56 131.9 1251.06 131.841C1251.57 131.776 1251.94 131.673 1252.17 131.531C1252.41 131.388 1252.52 131.158 1252.52 130.838V130.776C1252.52 130.001 1252.3 129.4 1251.86 128.974C1251.43 128.548 1250.79 128.335 1249.93 128.335C1249.03 128.335 1248.33 128.533 1247.82 128.929C1247.31 129.32 1246.95 129.755 1246.76 130.234L1244.26 129.666C1244.56 128.838 1244.99 128.169 1245.56 127.66C1246.13 127.145 1246.79 126.772 1247.54 126.541C1248.29 126.304 1249.07 126.186 1249.89 126.186C1250.44 126.186 1251.01 126.251 1251.62 126.381C1252.24 126.506 1252.81 126.737 1253.35 127.074C1253.88 127.411 1254.33 127.894 1254.67 128.521C1255.01 129.142 1255.18 129.95 1255.18 130.945V140H1252.59V138.136H1252.49C1252.31 138.479 1252.06 138.816 1251.71 139.148C1251.37 139.479 1250.93 139.754 1250.39 139.973C1249.85 140.192 1249.21 140.302 1248.45 140.302ZM1249.03 138.171C1249.77 138.171 1250.39 138.026 1250.91 137.736C1251.44 137.446 1251.84 137.067 1252.11 136.6C1252.39 136.126 1252.53 135.62 1252.53 135.082V133.324C1252.43 133.419 1252.25 133.507 1251.98 133.59C1251.71 133.667 1251.41 133.735 1251.06 133.794C1250.72 133.848 1250.39 133.898 1250.06 133.945C1249.74 133.987 1249.46 134.022 1249.24 134.052C1248.73 134.117 1248.26 134.226 1247.83 134.38C1247.41 134.534 1247.08 134.756 1246.82 135.046C1246.57 135.33 1246.45 135.709 1246.45 136.183C1246.45 136.839 1246.69 137.337 1247.18 137.674C1247.66 138.005 1248.28 138.171 1249.03 138.171ZM1271.44 129.693L1269.03 130.119C1268.93 129.811 1268.77 129.518 1268.55 129.24C1268.34 128.962 1268.05 128.734 1267.68 128.556C1267.32 128.379 1266.86 128.29 1266.31 128.29C1265.55 128.29 1264.93 128.459 1264.42 128.796C1263.92 129.128 1263.67 129.557 1263.67 130.083C1263.67 130.539 1263.84 130.906 1264.18 131.184C1264.51 131.462 1265.06 131.69 1265.81 131.868L1267.98 132.365C1269.23 132.655 1270.17 133.102 1270.78 133.706C1271.4 134.309 1271.7 135.094 1271.7 136.058C1271.7 136.875 1271.47 137.603 1270.99 138.242C1270.53 138.875 1269.87 139.373 1269.03 139.734C1268.2 140.095 1267.23 140.275 1266.13 140.275C1264.6 140.275 1263.36 139.95 1262.39 139.299C1261.43 138.642 1260.83 137.71 1260.62 136.502L1263.18 136.112C1263.34 136.78 1263.67 137.286 1264.17 137.63C1264.66 137.967 1265.31 138.136 1266.11 138.136C1266.98 138.136 1267.68 137.955 1268.2 137.594C1268.72 137.227 1268.98 136.78 1268.98 136.254C1268.98 135.827 1268.82 135.469 1268.5 135.179C1268.19 134.889 1267.7 134.67 1267.05 134.522L1264.74 134.016C1263.47 133.726 1262.53 133.265 1261.92 132.631C1261.32 131.998 1261.02 131.196 1261.02 130.225C1261.02 129.421 1261.24 128.716 1261.69 128.113C1262.14 127.509 1262.76 127.038 1263.55 126.701C1264.35 126.358 1265.26 126.186 1266.28 126.186C1267.75 126.186 1268.91 126.506 1269.76 127.145C1270.61 127.778 1271.17 128.627 1271.44 129.693ZM1283 140.275C1281.66 140.275 1280.5 139.988 1279.53 139.414C1278.56 138.834 1277.82 138.02 1277.29 136.973C1276.77 135.919 1276.51 134.685 1276.51 133.271C1276.51 131.874 1276.77 130.643 1277.29 129.577C1277.82 128.512 1278.55 127.681 1279.49 127.083C1280.44 126.485 1281.55 126.186 1282.81 126.186C1283.58 126.186 1284.33 126.313 1285.05 126.568C1285.77 126.822 1286.42 127.222 1286.99 127.766C1287.57 128.311 1288.02 129.018 1288.35 129.888C1288.68 130.752 1288.85 131.803 1288.85 133.04V133.981H1278.01V131.992H1286.25C1286.25 131.294 1286.11 130.675 1285.82 130.137C1285.54 129.592 1285.14 129.163 1284.62 128.849C1284.12 128.536 1283.52 128.379 1282.83 128.379C1282.09 128.379 1281.43 128.562 1280.88 128.929C1280.33 129.29 1279.9 129.764 1279.6 130.35C1279.3 130.93 1279.16 131.56 1279.16 132.241V133.794C1279.16 134.706 1279.32 135.481 1279.64 136.12C1279.96 136.76 1280.41 137.248 1280.99 137.585C1281.57 137.917 1282.25 138.082 1283.03 138.082C1283.53 138.082 1283.99 138.011 1284.4 137.869C1284.82 137.721 1285.17 137.502 1285.48 137.212C1285.78 136.922 1286.01 136.564 1286.17 136.138L1288.68 136.591C1288.48 137.331 1288.12 137.979 1287.6 138.535C1287.08 139.086 1286.44 139.515 1285.65 139.822C1284.88 140.124 1283.99 140.275 1283 140.275ZM1313.54 126.594C1313.45 125.754 1313.06 125.103 1312.37 124.641C1311.68 124.174 1310.82 123.94 1309.78 123.94C1309.03 123.94 1308.39 124.058 1307.84 124.295C1307.3 124.526 1306.87 124.846 1306.57 125.254C1306.28 125.656 1306.13 126.115 1306.13 126.63C1306.13 127.062 1306.23 127.435 1306.43 127.749C1306.64 128.062 1306.91 128.326 1307.24 128.539C1307.58 128.746 1307.94 128.92 1308.32 129.062C1308.71 129.199 1309.08 129.311 1309.43 129.4L1311.21 129.862C1311.79 130.004 1312.38 130.196 1312.99 130.439C1313.6 130.681 1314.17 131.001 1314.69 131.397C1315.21 131.794 1315.63 132.285 1315.95 132.871C1316.27 133.457 1316.44 134.158 1316.44 134.975C1316.44 136.005 1316.17 136.919 1315.64 137.718C1315.11 138.517 1314.34 139.148 1313.34 139.609C1312.34 140.071 1311.13 140.302 1309.71 140.302C1308.34 140.302 1307.17 140.086 1306.17 139.654C1305.18 139.222 1304.4 138.609 1303.84 137.816C1303.28 137.017 1302.97 136.07 1302.91 134.975H1305.66C1305.71 135.632 1305.92 136.18 1306.3 136.618C1306.68 137.05 1307.16 137.372 1307.74 137.585C1308.34 137.792 1308.98 137.896 1309.69 137.896C1310.46 137.896 1311.15 137.775 1311.76 137.532C1312.37 137.283 1312.85 136.94 1313.2 136.502C1313.54 136.058 1313.72 135.54 1313.72 134.949C1313.72 134.41 1313.57 133.969 1313.26 133.626C1312.96 133.282 1312.54 132.998 1312.02 132.773C1311.51 132.549 1310.93 132.35 1310.27 132.179L1308.13 131.593C1306.67 131.196 1305.52 130.613 1304.66 129.844C1303.82 129.074 1303.39 128.056 1303.39 126.79C1303.39 125.742 1303.68 124.828 1304.25 124.047C1304.81 123.265 1305.58 122.659 1306.55 122.227C1307.53 121.789 1308.62 121.57 1309.84 121.57C1311.07 121.57 1312.16 121.786 1313.1 122.218C1314.04 122.65 1314.79 123.245 1315.33 124.002C1315.88 124.754 1316.16 125.618 1316.19 126.594H1313.54ZM1328.37 126.364V128.494H1320.92V126.364H1328.37ZM1322.92 123.097H1325.57V135.996C1325.57 136.511 1325.65 136.899 1325.8 137.159C1325.95 137.414 1326.15 137.588 1326.4 137.683C1326.64 137.772 1326.91 137.816 1327.2 137.816C1327.42 137.816 1327.6 137.801 1327.76 137.772C1327.92 137.742 1328.05 137.718 1328.14 137.701L1328.61 139.893C1328.46 139.953 1328.24 140.012 1327.96 140.071C1327.67 140.136 1327.32 140.172 1326.89 140.178C1326.19 140.189 1325.54 140.065 1324.94 139.805C1324.34 139.544 1323.85 139.142 1323.47 138.597C1323.1 138.053 1322.92 137.369 1322.92 136.547V123.097ZM1342.44 134.345V126.364H1345.1V140H1342.49V137.638H1342.35C1342.04 138.366 1341.54 138.973 1340.84 139.458C1340.16 139.938 1339.3 140.178 1338.28 140.178C1337.4 140.178 1336.63 139.985 1335.95 139.6C1335.28 139.21 1334.76 138.633 1334.37 137.869C1333.99 137.106 1333.8 136.162 1333.8 135.037V126.364H1336.46V134.718C1336.46 135.647 1336.71 136.387 1337.23 136.937C1337.74 137.488 1338.41 137.763 1339.24 137.763C1339.73 137.763 1340.23 137.638 1340.72 137.39C1341.22 137.141 1341.63 136.766 1341.95 136.262C1342.28 135.759 1342.45 135.12 1342.44 134.345ZM1356.28 140.266C1355.17 140.266 1354.19 139.985 1353.33 139.423C1352.47 138.855 1351.8 138.047 1351.3 136.999C1350.82 135.946 1350.58 134.682 1350.58 133.208C1350.58 131.735 1350.82 130.474 1351.31 129.426C1351.81 128.379 1352.49 127.577 1353.35 127.021C1354.22 126.464 1355.2 126.186 1356.29 126.186C1357.14 126.186 1357.82 126.328 1358.34 126.612C1358.86 126.89 1359.26 127.216 1359.54 127.589C1359.83 127.962 1360.06 128.29 1360.22 128.574H1360.38V121.818H1363.03V140H1360.44V137.878H1360.22C1360.06 138.168 1359.83 138.5 1359.52 138.873C1359.23 139.245 1358.82 139.571 1358.3 139.849C1357.78 140.127 1357.1 140.266 1356.28 140.266ZM1356.86 138.002C1357.62 138.002 1358.27 137.801 1358.8 137.399C1359.33 136.99 1359.73 136.425 1360 135.703C1360.28 134.981 1360.42 134.141 1360.42 133.182C1360.42 132.235 1360.29 131.406 1360.01 130.696C1359.74 129.986 1359.34 129.432 1358.81 129.036C1358.29 128.639 1357.64 128.441 1356.86 128.441C1356.06 128.441 1355.4 128.648 1354.86 129.062C1354.33 129.477 1353.93 130.042 1353.66 130.758C1353.39 131.474 1353.26 132.282 1353.26 133.182C1353.26 134.093 1353.39 134.913 1353.67 135.641C1353.94 136.369 1354.34 136.946 1354.87 137.372C1355.41 137.792 1356.07 138.002 1356.86 138.002ZM1371 145.114C1370.6 145.114 1370.24 145.081 1369.91 145.016C1369.59 144.957 1369.35 144.892 1369.19 144.821L1369.83 142.646C1370.31 142.776 1370.74 142.832 1371.12 142.814C1371.5 142.797 1371.84 142.654 1372.13 142.388C1372.42 142.122 1372.68 141.687 1372.91 141.083L1373.24 140.178L1368.25 126.364H1371.09L1374.54 136.946H1374.68L1378.14 126.364H1380.99L1375.37 141.82C1375.11 142.53 1374.77 143.131 1374.37 143.622C1373.97 144.119 1373.49 144.492 1372.93 144.741C1372.38 144.989 1371.73 145.114 1371 145.114Z" fill="#282F4A"/>
<rect x="976.112" y="94.5" width="164.326" height="70" rx="35" stroke="#282F4A" stroke-width="3" stroke-dasharray="6 6"/>
<path d="M1021.58 121.818L1026.64 136.626H1026.84L1031.9 121.818H1034.87L1028.33 140H1025.16L1018.61 121.818H1021.58ZM1039.78 140V126.364H1042.44V140H1039.78ZM1041.12 124.26C1040.66 124.26 1040.26 124.106 1039.93 123.798C1039.61 123.484 1039.44 123.111 1039.44 122.679C1039.44 122.241 1039.61 121.868 1039.93 121.561C1040.26 121.247 1040.66 121.09 1041.12 121.09C1041.58 121.09 1041.98 121.247 1042.3 121.561C1042.63 121.868 1042.8 122.241 1042.8 122.679C1042.8 123.111 1042.63 123.484 1042.3 123.798C1041.98 124.106 1041.58 124.26 1041.12 124.26ZM1053.61 140.266C1052.51 140.266 1051.53 139.985 1050.66 139.423C1049.81 138.855 1049.13 138.047 1048.64 136.999C1048.16 135.946 1047.91 134.682 1047.91 133.208C1047.91 131.735 1048.16 130.474 1048.65 129.426C1049.15 128.379 1049.83 127.577 1050.69 127.021C1051.56 126.464 1052.53 126.186 1053.63 126.186C1054.48 126.186 1055.16 126.328 1055.67 126.612C1056.19 126.89 1056.59 127.216 1056.88 127.589C1057.17 127.962 1057.39 128.29 1057.55 128.574H1057.71V121.818H1060.37V140H1057.78V137.878H1057.55C1057.39 138.168 1057.16 138.5 1056.86 138.873C1056.57 139.245 1056.16 139.571 1055.64 139.849C1055.12 140.127 1054.44 140.266 1053.61 140.266ZM1054.2 138.002C1054.96 138.002 1055.61 137.801 1056.13 137.399C1056.67 136.99 1057.07 136.425 1057.34 135.703C1057.62 134.981 1057.76 134.141 1057.76 133.182C1057.76 132.235 1057.62 131.406 1057.35 130.696C1057.08 129.986 1056.68 129.432 1056.15 129.036C1055.62 128.639 1054.97 128.441 1054.2 128.441C1053.4 128.441 1052.73 128.648 1052.2 129.062C1051.67 129.477 1051.27 130.042 1050.99 130.758C1050.73 131.474 1050.59 132.282 1050.59 133.182C1050.59 134.093 1050.73 134.913 1051 135.641C1051.27 136.369 1051.68 136.946 1052.21 137.372C1052.75 137.792 1053.41 138.002 1054.2 138.002ZM1072.53 140.275C1071.19 140.275 1070.03 139.988 1069.06 139.414C1068.1 138.834 1067.35 138.02 1066.83 136.973C1066.3 135.919 1066.04 134.685 1066.04 133.271C1066.04 131.874 1066.3 130.643 1066.83 129.577C1067.35 128.512 1068.09 127.681 1069.03 127.083C1069.97 126.485 1071.08 126.186 1072.35 126.186C1073.12 126.186 1073.86 126.313 1074.58 126.568C1075.31 126.822 1075.95 127.222 1076.53 127.766C1077.1 128.311 1077.56 129.018 1077.89 129.888C1078.22 130.752 1078.38 131.803 1078.38 133.04V133.981H1067.54V131.992H1075.78C1075.78 131.294 1075.64 130.675 1075.36 130.137C1075.07 129.592 1074.67 129.163 1074.16 128.849C1073.65 128.536 1073.05 128.379 1072.37 128.379C1071.62 128.379 1070.97 128.562 1070.41 128.929C1069.86 129.29 1069.44 129.764 1069.13 130.35C1068.84 130.93 1068.69 131.56 1068.69 132.241V133.794C1068.69 134.706 1068.85 135.481 1069.17 136.12C1069.49 136.76 1069.95 137.248 1070.53 137.585C1071.11 137.917 1071.79 138.082 1072.56 138.082C1073.06 138.082 1073.52 138.011 1073.94 137.869C1074.35 137.721 1074.71 137.502 1075.01 137.212C1075.31 136.922 1075.54 136.564 1075.7 136.138L1078.22 136.591C1078.01 137.331 1077.65 137.979 1077.13 138.535C1076.62 139.086 1075.97 139.515 1075.19 139.822C1074.41 140.124 1073.53 140.275 1072.53 140.275ZM1089.57 140.275C1088.3 140.275 1087.18 139.982 1086.23 139.396C1085.27 138.81 1084.53 137.991 1084.01 136.937C1083.48 135.884 1083.22 134.653 1083.22 133.244C1083.22 131.829 1083.48 130.592 1084.01 129.533C1084.53 128.474 1085.27 127.651 1086.23 127.065C1087.18 126.479 1088.3 126.186 1089.57 126.186C1090.85 126.186 1091.97 126.479 1092.92 127.065C1093.87 127.651 1094.61 128.474 1095.14 129.533C1095.67 130.592 1095.93 131.829 1095.93 133.244C1095.93 134.653 1095.67 135.884 1095.14 136.937C1094.61 137.991 1093.87 138.81 1092.92 139.396C1091.97 139.982 1090.85 140.275 1089.57 140.275ZM1089.58 138.047C1090.41 138.047 1091.1 137.828 1091.64 137.39C1092.19 136.952 1092.59 136.369 1092.85 135.641C1093.12 134.913 1093.25 134.111 1093.25 133.235C1093.25 132.365 1093.12 131.566 1092.85 130.838C1092.59 130.104 1092.19 129.515 1091.64 129.071C1091.1 128.627 1090.41 128.406 1089.58 128.406C1088.75 128.406 1088.06 128.627 1087.5 129.071C1086.96 129.515 1086.56 130.104 1086.29 130.838C1086.03 131.566 1085.9 132.365 1085.9 133.235C1085.9 134.111 1086.03 134.913 1086.29 135.641C1086.56 136.369 1086.96 136.952 1087.5 137.39C1088.06 137.828 1088.75 138.047 1089.58 138.047Z" fill="#282F4A"/>
<rect x="662.472" y="94.5" width="277.238" height="70" rx="35" stroke="#282F4A" stroke-width="3" stroke-dasharray="6 6"/>
<path d="M717.216 140H711.33V121.818H717.402C719.184 121.818 720.714 122.182 721.992 122.91C723.271 123.632 724.25 124.671 724.931 126.026C725.617 127.376 725.961 128.994 725.961 130.882C725.961 132.776 725.614 134.404 724.922 135.765C724.235 137.127 723.241 138.174 721.939 138.908C720.637 139.636 719.063 140 717.216 140ZM714.073 137.603H717.065C718.45 137.603 719.601 137.343 720.519 136.822C721.436 136.295 722.122 135.534 722.578 134.54C723.034 133.54 723.262 132.321 723.262 130.882C723.262 129.456 723.034 128.246 722.578 127.251C722.128 126.257 721.457 125.502 720.563 124.988C719.669 124.473 718.56 124.215 717.234 124.215H714.073V137.603ZM737.536 140.275C736.193 140.275 735.035 139.988 734.065 139.414C733.1 138.834 732.354 138.02 731.828 136.973C731.307 135.919 731.046 134.685 731.046 133.271C731.046 131.874 731.307 130.643 731.828 129.577C732.354 128.512 733.088 127.681 734.029 127.083C734.976 126.485 736.083 126.186 737.35 126.186C738.119 126.186 738.865 126.313 739.587 126.568C740.309 126.822 740.957 127.222 741.531 127.766C742.105 128.311 742.558 129.018 742.889 129.888C743.221 130.752 743.387 131.803 743.387 133.04V133.981H732.547V131.992H740.785C740.785 131.294 740.643 130.675 740.359 130.137C740.075 129.592 739.676 129.163 739.161 128.849C738.652 128.536 738.054 128.379 737.367 128.379C736.622 128.379 735.971 128.562 735.414 128.929C734.864 129.29 734.438 129.764 734.136 130.35C733.84 130.93 733.692 131.56 733.692 132.241V133.794C733.692 134.706 733.852 135.481 734.171 136.12C734.497 136.76 734.95 137.248 735.53 137.585C736.11 137.917 736.787 138.082 737.563 138.082C738.066 138.082 738.524 138.011 738.939 137.869C739.353 137.721 739.711 137.502 740.013 137.212C740.315 136.922 740.546 136.564 740.705 136.138L743.218 136.591C743.017 137.331 742.656 137.979 742.135 138.535C741.62 139.086 740.972 139.515 740.191 139.822C739.415 140.124 738.53 140.275 737.536 140.275ZM760.107 126.364L755.162 140H752.321L747.367 126.364H750.217L753.67 136.857H753.812L757.257 126.364H760.107ZM770.515 140.275C769.171 140.275 768.014 139.988 767.043 139.414C766.079 138.834 765.333 138.02 764.806 136.973C764.285 135.919 764.025 134.685 764.025 133.271C764.025 131.874 764.285 130.643 764.806 129.577C765.333 128.512 766.067 127.681 767.008 127.083C767.955 126.485 769.062 126.186 770.328 126.186C771.098 126.186 771.843 126.313 772.565 126.568C773.287 126.822 773.935 127.222 774.51 127.766C775.084 128.311 775.536 129.018 775.868 129.888C776.199 130.752 776.365 131.803 776.365 133.04V133.981H765.525V131.992H773.764C773.764 131.294 773.622 130.675 773.338 130.137C773.054 129.592 772.654 129.163 772.139 128.849C771.63 128.536 771.032 128.379 770.346 128.379C769.6 128.379 768.949 128.562 768.393 128.929C767.842 129.29 767.416 129.764 767.114 130.35C766.818 130.93 766.67 131.56 766.67 132.241V133.794C766.67 134.706 766.83 135.481 767.15 136.12C767.475 136.76 767.928 137.248 768.508 137.585C769.088 137.917 769.766 138.082 770.541 138.082C771.044 138.082 771.503 138.011 771.917 137.869C772.332 137.721 772.69 137.502 772.991 137.212C773.293 136.922 773.524 136.564 773.684 136.138L776.196 136.591C775.995 137.331 775.634 137.979 775.113 138.535C774.598 139.086 773.95 139.515 773.169 139.822C772.394 140.124 771.509 140.275 770.515 140.275ZM784.465 121.818V140H781.81V121.818H784.465ZM796.28 140.275C795.001 140.275 793.886 139.982 792.933 139.396C791.98 138.81 791.24 137.991 790.713 136.937C790.187 135.884 789.923 134.653 789.923 133.244C789.923 131.829 790.187 130.592 790.713 129.533C791.24 128.474 791.98 127.651 792.933 127.065C793.886 126.479 795.001 126.186 796.28 126.186C797.558 126.186 798.674 126.479 799.627 127.065C800.58 127.651 801.319 128.474 801.846 129.533C802.373 130.592 802.636 131.829 802.636 133.244C802.636 134.653 802.373 135.884 801.846 136.937C801.319 137.991 800.58 138.81 799.627 139.396C798.674 139.982 797.558 140.275 796.28 140.275ZM796.289 138.047C797.117 138.047 797.804 137.828 798.348 137.39C798.893 136.952 799.295 136.369 799.556 135.641C799.822 134.913 799.955 134.111 799.955 133.235C799.955 132.365 799.822 131.566 799.556 130.838C799.295 130.104 798.893 129.515 798.348 129.071C797.804 128.627 797.117 128.406 796.289 128.406C795.454 128.406 794.762 128.627 794.211 129.071C793.667 129.515 793.261 130.104 792.995 130.838C792.735 131.566 792.604 132.365 792.604 133.235C792.604 134.111 792.735 134.913 792.995 135.641C793.261 136.369 793.667 136.952 794.211 137.39C794.762 137.828 795.454 138.047 796.289 138.047ZM808.099 145.114V126.364H810.692V128.574H810.914C811.068 128.29 811.289 127.962 811.579 127.589C811.869 127.216 812.272 126.89 812.787 126.612C813.302 126.328 813.982 126.186 814.829 126.186C815.93 126.186 816.912 126.464 817.776 127.021C818.64 127.577 819.318 128.379 819.809 129.426C820.306 130.474 820.555 131.735 820.555 133.208C820.555 134.682 820.309 135.946 819.818 136.999C819.327 138.047 818.652 138.855 817.794 139.423C816.936 139.985 815.956 140.266 814.855 140.266C814.027 140.266 813.349 140.127 812.822 139.849C812.302 139.571 811.893 139.245 811.597 138.873C811.301 138.5 811.073 138.168 810.914 137.878H810.754V145.114H808.099ZM810.701 133.182C810.701 134.141 810.84 134.981 811.118 135.703C811.396 136.425 811.798 136.99 812.325 137.399C812.852 137.801 813.497 138.002 814.261 138.002C815.054 138.002 815.717 137.792 816.249 137.372C816.782 136.946 817.184 136.369 817.457 135.641C817.735 134.913 817.874 134.093 817.874 133.182C817.874 132.282 817.738 131.474 817.465 130.758C817.199 130.042 816.797 129.477 816.258 129.062C815.725 128.648 815.06 128.441 814.261 128.441C813.491 128.441 812.84 128.639 812.307 129.036C811.781 129.432 811.381 129.986 811.109 130.696C810.837 131.406 810.701 132.235 810.701 133.182ZM826.029 140V126.364H828.577V128.583H828.746C829.03 127.831 829.494 127.246 830.139 126.825C830.785 126.399 831.557 126.186 832.457 126.186C833.368 126.186 834.132 126.399 834.747 126.825C835.369 127.251 835.827 127.837 836.123 128.583H836.265C836.591 127.855 837.109 127.275 837.819 126.843C838.529 126.405 839.375 126.186 840.358 126.186C841.595 126.186 842.604 126.574 843.385 127.349C844.172 128.124 844.566 129.293 844.566 130.856V140H841.911V131.104C841.911 130.181 841.66 129.512 841.157 129.098C840.654 128.684 840.053 128.477 839.355 128.477C838.491 128.477 837.819 128.743 837.339 129.276C836.86 129.802 836.62 130.48 836.62 131.309V140H833.975V130.936C833.975 130.196 833.744 129.601 833.282 129.151C832.821 128.701 832.22 128.477 831.48 128.477C830.977 128.477 830.512 128.61 830.086 128.876C829.666 129.136 829.326 129.5 829.065 129.968C828.811 130.436 828.684 130.977 828.684 131.593V140H826.029ZM856.501 140.275C855.157 140.275 854 139.988 853.03 139.414C852.065 138.834 851.319 138.02 850.792 136.973C850.272 135.919 850.011 134.685 850.011 133.271C850.011 131.874 850.272 130.643 850.792 129.577C851.319 128.512 852.053 127.681 852.994 127.083C853.941 126.485 855.048 126.186 856.314 126.186C857.084 126.186 857.83 126.313 858.552 126.568C859.274 126.822 859.922 127.222 860.496 127.766C861.07 128.311 861.523 129.018 861.854 129.888C862.186 130.752 862.351 131.803 862.351 133.04V133.981H851.512V131.992H859.75C859.75 131.294 859.608 130.675 859.324 130.137C859.04 129.592 858.64 129.163 858.126 128.849C857.617 128.536 857.019 128.379 856.332 128.379C855.586 128.379 854.935 128.562 854.379 128.929C853.829 129.29 853.403 129.764 853.101 130.35C852.805 130.93 852.657 131.56 852.657 132.241V133.794C852.657 134.706 852.817 135.481 853.136 136.12C853.462 136.76 853.914 137.248 854.494 137.585C855.074 137.917 855.752 138.082 856.528 138.082C857.031 138.082 857.489 138.011 857.904 137.869C858.318 137.721 858.676 137.502 858.978 137.212C859.28 136.922 859.51 136.564 859.67 136.138L862.183 136.591C861.981 137.331 861.62 137.979 861.1 138.535C860.585 139.086 859.937 139.515 859.155 139.822C858.38 140.124 857.495 140.275 856.501 140.275ZM870.451 131.903V140H867.797V126.364H870.345V128.583H870.513C870.827 127.861 871.318 127.281 871.987 126.843C872.662 126.405 873.511 126.186 874.535 126.186C875.464 126.186 876.278 126.381 876.976 126.772C877.675 127.157 878.216 127.731 878.601 128.494C878.986 129.258 879.178 130.202 879.178 131.326V140H876.524V131.646C876.524 130.658 876.266 129.885 875.751 129.329C875.236 128.767 874.529 128.485 873.629 128.485C873.014 128.485 872.466 128.619 871.987 128.885C871.513 129.151 871.138 129.542 870.859 130.057C870.587 130.566 870.451 131.181 870.451 131.903ZM891.603 126.364V128.494H884.155V126.364H891.603ZM886.152 123.097H888.807V135.996C888.807 136.511 888.884 136.899 889.038 137.159C889.192 137.414 889.39 137.588 889.633 137.683C889.881 137.772 890.15 137.816 890.44 137.816C890.653 137.816 890.84 137.801 891 137.772C891.16 137.742 891.284 137.718 891.373 137.701L891.852 139.893C891.698 139.953 891.479 140.012 891.195 140.071C890.911 140.136 890.556 140.172 890.13 140.178C889.431 140.189 888.78 140.065 888.177 139.805C887.573 139.544 887.085 139.142 886.712 138.597C886.339 138.053 886.152 137.369 886.152 136.547V123.097Z" fill="#282F4A"/>
<rect x="122.695" y="493.479" width="280.816" height="63.1671" rx="31.5835" fill="#FDCA48" stroke="#282F4A" stroke-width="3"/>
<path d="M180.179 530.542H174.293V512.36H180.366C182.147 512.36 183.677 512.724 184.956 513.452C186.234 514.174 187.213 515.212 187.894 516.568C188.581 517.917 188.924 519.536 188.924 521.424C188.924 523.318 188.578 524.946 187.885 526.307C187.199 527.668 186.204 528.716 184.902 529.45C183.6 530.178 182.026 530.542 180.179 530.542ZM177.036 528.144H180.028C181.413 528.144 182.564 527.884 183.482 527.363C184.399 526.836 185.086 526.076 185.541 525.082C185.997 524.081 186.225 522.862 186.225 521.424C186.225 519.998 185.997 518.787 185.541 517.793C185.092 516.799 184.42 516.044 183.526 515.529C182.632 515.014 181.523 514.757 180.197 514.757H177.036V528.144ZM200.499 530.817C199.156 530.817 197.999 530.53 197.028 529.956C196.063 529.376 195.318 528.562 194.791 527.514C194.27 526.461 194.01 525.227 194.01 523.812C194.01 522.415 194.27 521.184 194.791 520.119C195.318 519.054 196.052 518.222 196.993 517.624C197.94 517.026 199.046 516.728 200.313 516.728C201.082 516.728 201.828 516.855 202.55 517.109C203.272 517.364 203.92 517.763 204.494 518.308C205.068 518.852 205.521 519.56 205.853 520.43C206.184 521.294 206.35 522.344 206.35 523.581V524.522H195.51V522.534H203.749C203.749 521.835 203.607 521.217 203.322 520.678C203.038 520.134 202.639 519.705 202.124 519.391C201.615 519.077 201.017 518.92 200.331 518.92C199.585 518.92 198.934 519.104 198.377 519.471C197.827 519.832 197.401 520.305 197.099 520.891C196.803 521.471 196.655 522.102 196.655 522.782V524.336C196.655 525.247 196.815 526.023 197.135 526.662C197.46 527.301 197.913 527.789 198.493 528.127C199.073 528.458 199.751 528.624 200.526 528.624C201.029 528.624 201.488 528.553 201.902 528.411C202.316 528.263 202.674 528.044 202.976 527.754C203.278 527.464 203.509 527.106 203.669 526.68L206.181 527.132C205.98 527.872 205.619 528.52 205.098 529.077C204.583 529.627 203.935 530.056 203.154 530.364C202.378 530.666 201.494 530.817 200.499 530.817ZM223.07 516.905L218.125 530.542H215.284L210.33 516.905H213.18L216.633 527.399H216.775L220.22 516.905H223.07ZM233.478 530.817C232.134 530.817 230.977 530.53 230.007 529.956C229.042 529.376 228.296 528.562 227.769 527.514C227.249 526.461 226.988 525.227 226.988 523.812C226.988 522.415 227.249 521.184 227.769 520.119C228.296 519.054 229.03 518.222 229.971 517.624C230.918 517.026 232.025 516.728 233.291 516.728C234.061 516.728 234.807 516.855 235.529 517.109C236.251 517.364 236.899 517.763 237.473 518.308C238.047 518.852 238.5 519.56 238.831 520.43C239.163 521.294 239.328 522.344 239.328 523.581V524.522H228.488V522.534H236.727C236.727 521.835 236.585 521.217 236.301 520.678C236.017 520.134 235.617 519.705 235.102 519.391C234.593 519.077 233.996 518.92 233.309 518.92C232.563 518.92 231.912 519.104 231.356 519.471C230.806 519.832 230.379 520.305 230.078 520.891C229.782 521.471 229.634 522.102 229.634 522.782V524.336C229.634 525.247 229.794 526.023 230.113 526.662C230.439 527.301 230.891 527.789 231.471 528.127C232.051 528.458 232.729 528.624 233.504 528.624C234.008 528.624 234.466 528.553 234.881 528.411C235.295 528.263 235.653 528.044 235.955 527.754C236.257 527.464 236.487 527.106 236.647 526.68L239.16 527.132C238.958 527.872 238.597 528.52 238.077 529.077C237.562 529.627 236.914 530.056 236.132 530.364C235.357 530.666 234.472 530.817 233.478 530.817ZM247.428 512.36V530.542H244.774V512.36H247.428ZM259.243 530.817C257.965 530.817 256.849 530.524 255.896 529.938C254.943 529.352 254.203 528.532 253.677 527.479C253.15 526.425 252.887 525.194 252.887 523.785C252.887 522.371 253.15 521.134 253.677 520.075C254.203 519.015 254.943 518.192 255.896 517.606C256.849 517.021 257.965 516.728 259.243 516.728C260.521 516.728 261.637 517.021 262.59 517.606C263.543 518.192 264.283 519.015 264.809 520.075C265.336 521.134 265.6 522.371 265.6 523.785C265.6 525.194 265.336 526.425 264.809 527.479C264.283 528.532 263.543 529.352 262.59 529.938C261.637 530.524 260.521 530.817 259.243 530.817ZM259.252 528.588C260.081 528.588 260.767 528.369 261.312 527.931C261.856 527.493 262.259 526.91 262.519 526.182C262.785 525.455 262.919 524.653 262.919 523.777C262.919 522.907 262.785 522.108 262.519 521.38C262.259 520.646 261.856 520.057 261.312 519.613C260.767 519.169 260.081 518.947 259.252 518.947C258.417 518.947 257.725 519.169 257.175 519.613C256.63 520.057 256.225 520.646 255.958 521.38C255.698 522.108 255.568 522.907 255.568 523.777C255.568 524.653 255.698 525.455 255.958 526.182C256.225 526.91 256.63 527.493 257.175 527.931C257.725 528.369 258.417 528.588 259.252 528.588ZM271.063 535.655V516.905H273.655V519.116H273.877C274.031 518.832 274.253 518.503 274.543 518.13C274.833 517.757 275.235 517.432 275.75 517.154C276.265 516.87 276.946 516.728 277.792 516.728C278.893 516.728 279.875 517.006 280.739 517.562C281.604 518.118 282.281 518.92 282.772 519.968C283.27 521.016 283.518 522.276 283.518 523.75C283.518 525.224 283.273 526.487 282.781 527.541C282.29 528.588 281.615 529.396 280.757 529.964C279.899 530.527 278.919 530.808 277.819 530.808C276.99 530.808 276.312 530.669 275.786 530.391C275.265 530.112 274.856 529.787 274.56 529.414C274.265 529.041 274.037 528.71 273.877 528.42H273.717V535.655H271.063ZM273.664 523.723C273.664 524.682 273.803 525.523 274.081 526.245C274.359 526.967 274.762 527.532 275.288 527.94C275.815 528.343 276.46 528.544 277.224 528.544C278.017 528.544 278.68 528.334 279.212 527.914C279.745 527.488 280.148 526.91 280.42 526.182C280.698 525.455 280.837 524.635 280.837 523.723C280.837 522.824 280.701 522.016 280.429 521.3C280.162 520.584 279.76 520.018 279.221 519.604C278.689 519.19 278.023 518.983 277.224 518.983C276.454 518.983 275.803 519.181 275.271 519.577C274.744 519.974 274.344 520.527 274.072 521.238C273.8 521.948 273.664 522.776 273.664 523.723ZM288.992 530.542V516.905H291.54V519.125H291.709C291.993 518.373 292.458 517.787 293.103 517.367C293.748 516.941 294.52 516.728 295.42 516.728C296.331 516.728 297.095 516.941 297.71 517.367C298.332 517.793 298.79 518.379 299.086 519.125H299.228C299.554 518.397 300.072 517.817 300.782 517.385C301.492 516.947 302.339 516.728 303.321 516.728C304.558 516.728 305.567 517.115 306.348 517.891C307.136 518.666 307.529 519.835 307.529 521.397V530.542H304.875V521.646C304.875 520.723 304.623 520.054 304.12 519.64C303.617 519.225 303.016 519.018 302.318 519.018C301.454 519.018 300.782 519.284 300.303 519.817C299.823 520.344 299.584 521.021 299.584 521.85V530.542H296.938V521.477C296.938 520.737 296.707 520.143 296.245 519.693C295.784 519.243 295.183 519.018 294.443 519.018C293.94 519.018 293.476 519.151 293.049 519.418C292.629 519.678 292.289 520.042 292.028 520.51C291.774 520.977 291.647 521.519 291.647 522.134V530.542H288.992ZM319.464 530.817C318.121 530.817 316.964 530.53 315.993 529.956C315.028 529.376 314.282 528.562 313.756 527.514C313.235 526.461 312.974 525.227 312.974 523.812C312.974 522.415 313.235 521.184 313.756 520.119C314.282 519.054 315.016 518.222 315.957 517.624C316.904 517.026 318.011 516.728 319.278 516.728C320.047 516.728 320.793 516.855 321.515 517.109C322.237 517.364 322.885 517.763 323.459 518.308C324.033 518.852 324.486 519.56 324.817 520.43C325.149 521.294 325.315 522.344 325.315 523.581V524.522H314.475V522.534H322.713C322.713 521.835 322.571 521.217 322.287 520.678C322.003 520.134 321.604 519.705 321.089 519.391C320.58 519.077 319.982 518.92 319.295 518.92C318.55 518.92 317.899 519.104 317.342 519.471C316.792 519.832 316.366 520.305 316.064 520.891C315.768 521.471 315.62 522.102 315.62 522.782V524.336C315.62 525.247 315.78 526.023 316.099 526.662C316.425 527.301 316.878 527.789 317.458 528.127C318.038 528.458 318.715 528.624 319.491 528.624C319.994 528.624 320.453 528.553 320.867 528.411C321.281 528.263 321.639 528.044 321.941 527.754C322.243 527.464 322.474 527.106 322.634 526.68L325.146 527.132C324.945 527.872 324.584 528.52 324.063 529.077C323.548 529.627 322.9 530.056 322.119 530.364C321.343 530.666 320.458 530.817 319.464 530.817ZM333.414 522.445V530.542H330.76V516.905H333.308V519.125H333.476C333.79 518.403 334.281 517.823 334.95 517.385C335.625 516.947 336.474 516.728 337.498 516.728C338.427 516.728 339.241 516.923 339.94 517.314C340.638 517.698 341.179 518.272 341.564 519.036C341.949 519.799 342.141 520.743 342.141 521.868V530.542H339.487V522.187C339.487 521.199 339.229 520.427 338.714 519.87C338.199 519.308 337.492 519.027 336.593 519.027C335.977 519.027 335.43 519.16 334.95 519.426C334.477 519.693 334.101 520.083 333.823 520.598C333.55 521.107 333.414 521.723 333.414 522.445ZM354.567 516.905V519.036H347.118V516.905H354.567ZM349.116 513.638H351.77V526.538C351.77 527.053 351.847 527.44 352.001 527.701C352.155 527.955 352.353 528.13 352.596 528.224C352.844 528.313 353.114 528.358 353.404 528.358C353.617 528.358 353.803 528.343 353.963 528.313C354.123 528.284 354.247 528.26 354.336 528.242L354.815 530.435C354.661 530.494 354.442 530.553 354.158 530.613C353.874 530.678 353.519 530.713 353.093 530.719C352.395 530.731 351.744 530.607 351.14 530.346C350.536 530.086 350.048 529.683 349.675 529.139C349.302 528.594 349.116 527.911 349.116 527.088V513.638Z" fill="#282F4A"/>
<rect x="486.026" y="94.5" width="143.241" height="70" rx="35" fill="#9FB47C" stroke="#282F4A" stroke-width="3"/>
<path d="M532.064 121.818H534.816V133.777C534.816 135.049 534.517 136.177 533.919 137.159C533.321 138.136 532.481 138.905 531.398 139.467C530.315 140.024 529.045 140.302 527.589 140.302C526.139 140.302 524.873 140.024 523.79 139.467C522.706 138.905 521.866 138.136 521.268 137.159C520.67 136.177 520.372 135.049 520.372 133.777V121.818H523.115V133.555C523.115 134.377 523.295 135.108 523.656 135.748C524.023 136.387 524.541 136.89 525.21 137.257C525.879 137.618 526.672 137.798 527.589 137.798C528.513 137.798 529.309 137.618 529.977 137.257C530.652 136.89 531.167 136.387 531.522 135.748C531.883 135.108 532.064 134.377 532.064 133.555V121.818ZM544.047 121.818V140H541.304V121.818H544.047ZM557.254 120.966L551.395 142.734H549.024L554.884 120.966H557.254ZM573.914 121.818H576.666V133.777C576.666 135.049 576.368 136.177 575.77 137.159C575.172 138.136 574.332 138.905 573.248 139.467C572.165 140.024 570.896 140.302 569.44 140.302C567.99 140.302 566.723 140.024 565.64 139.467C564.557 138.905 563.717 138.136 563.119 137.159C562.521 136.177 562.222 135.049 562.222 133.777V121.818H564.965V133.555C564.965 134.377 565.146 135.108 565.507 135.748C565.874 136.387 566.392 136.89 567.061 137.257C567.729 137.618 568.522 137.798 569.44 137.798C570.363 137.798 571.159 137.618 571.828 137.257C572.503 136.89 573.018 136.387 573.373 135.748C573.734 135.108 573.914 134.377 573.914 133.555V121.818ZM585.064 121.818L589.414 128.929H589.556L593.906 121.818H597.084L591.42 130.909L597.12 140H593.924L589.556 132.987H589.414L585.046 140H581.85L587.647 130.909L581.885 121.818H585.064Z" fill="#282F4A"/>
<rect x="626.5" y="242.5" width="475" height="475" rx="28.5" fill="#FFECDD" stroke="#282F4A" stroke-width="3"/>
<path d="M676.909 398.955V362.591H682.395V378.394H700.524V362.591H706.028V398.955H700.524V383.099H682.395V398.955H676.909ZM726.529 399.558C724.8 399.558 723.238 399.239 721.841 398.599C720.444 397.948 719.338 397.007 718.521 395.776C717.716 394.545 717.313 393.036 717.313 391.249C717.313 389.71 717.609 388.443 718.201 387.449C718.793 386.455 719.592 385.667 720.598 385.087C721.604 384.507 722.729 384.069 723.972 383.773C725.215 383.478 726.481 383.253 727.772 383.099C729.405 382.909 730.731 382.755 731.749 382.637C732.767 382.507 733.507 382.3 733.968 382.016C734.43 381.732 734.661 381.27 734.661 380.631V380.506C734.661 378.956 734.223 377.754 733.347 376.902C732.483 376.05 731.192 375.624 729.476 375.624C727.689 375.624 726.28 376.02 725.25 376.813C724.232 377.595 723.528 378.465 723.137 379.423L718.148 378.287C718.74 376.63 719.604 375.292 720.74 374.274C721.888 373.244 723.208 372.499 724.7 372.037C726.191 371.563 727.76 371.327 729.405 371.327C730.494 371.327 731.648 371.457 732.867 371.717C734.098 371.966 735.247 372.428 736.312 373.102C737.389 373.777 738.271 374.742 738.958 375.996C739.644 377.239 739.987 378.855 739.987 380.844V398.955H734.803V395.226H734.59C734.246 395.912 733.732 396.587 733.045 397.25C732.358 397.913 731.477 398.463 730.399 398.901C729.322 399.339 728.032 399.558 726.529 399.558ZM727.683 395.297C729.151 395.297 730.405 395.007 731.447 394.427C732.5 393.847 733.299 393.089 733.844 392.154C734.4 391.207 734.678 390.195 734.678 389.118V385.602C734.489 385.792 734.122 385.969 733.578 386.135C733.045 386.289 732.435 386.425 731.749 386.543C731.062 386.65 730.393 386.751 729.742 386.845C729.091 386.928 728.547 386.999 728.109 387.058C727.079 387.188 726.138 387.407 725.286 387.715C724.445 388.023 723.771 388.467 723.262 389.047C722.764 389.615 722.516 390.373 722.516 391.32C722.516 392.634 723.001 393.628 723.972 394.303C724.942 394.965 726.179 395.297 727.683 395.297ZM752.059 409.182V371.682H757.243V376.103H757.687C757.995 375.535 758.439 374.878 759.019 374.132C759.599 373.386 760.404 372.735 761.434 372.179C762.463 371.611 763.825 371.327 765.517 371.327C767.719 371.327 769.684 371.883 771.412 372.996C773.141 374.108 774.496 375.712 775.478 377.808C776.473 379.903 776.97 382.424 776.97 385.371C776.97 388.319 776.479 390.846 775.496 392.953C774.514 395.048 773.164 396.664 771.448 397.8C769.731 398.925 767.772 399.487 765.571 399.487C763.914 399.487 762.558 399.209 761.505 398.653C760.463 398.096 759.646 397.445 759.054 396.7C758.463 395.954 758.007 395.291 757.687 394.711H757.368V409.182H752.059ZM757.261 385.318C757.261 387.236 757.539 388.917 758.096 390.361C758.652 391.805 759.457 392.935 760.51 393.752C761.564 394.557 762.854 394.96 764.381 394.96C765.967 394.96 767.293 394.539 768.358 393.699C769.424 392.847 770.229 391.693 770.773 390.237C771.329 388.781 771.608 387.141 771.608 385.318C771.608 383.519 771.335 381.903 770.791 380.471C770.258 379.039 769.453 377.908 768.376 377.08C767.311 376.251 765.979 375.837 764.381 375.837C762.842 375.837 761.54 376.233 760.475 377.026C759.421 377.819 758.622 378.926 758.078 380.347C757.533 381.767 757.261 383.424 757.261 385.318ZM787.918 409.182V371.682H793.103V376.103H793.547C793.854 375.535 794.298 374.878 794.878 374.132C795.458 373.386 796.263 372.735 797.293 372.179C798.323 371.611 799.684 371.327 801.377 371.327C803.579 371.327 805.543 371.883 807.272 372.996C809 374.108 810.355 375.712 811.338 377.808C812.332 379.903 812.829 382.424 812.829 385.371C812.829 388.319 812.338 390.846 811.356 392.953C810.373 395.048 809.024 396.664 807.307 397.8C805.591 398.925 803.632 399.487 801.43 399.487C799.773 399.487 798.418 399.209 797.364 398.653C796.322 398.096 795.506 397.445 794.914 396.7C794.322 395.954 793.866 395.291 793.547 394.711H793.227V409.182H787.918ZM793.12 385.318C793.12 387.236 793.399 388.917 793.955 390.361C794.511 391.805 795.316 392.935 796.37 393.752C797.423 394.557 798.713 394.96 800.24 394.96C801.827 394.96 803.152 394.539 804.218 393.699C805.283 392.847 806.088 391.693 806.633 390.237C807.189 388.781 807.467 387.141 807.467 385.318C807.467 383.519 807.195 381.903 806.65 380.471C806.118 379.039 805.313 377.908 804.235 377.08C803.17 376.251 801.838 375.837 800.24 375.837C798.702 375.837 797.4 376.233 796.334 377.026C795.281 377.819 794.482 378.926 793.937 380.347C793.393 381.767 793.12 383.424 793.12 385.318ZM826.205 409.182C825.412 409.182 824.69 409.117 824.039 408.987C823.388 408.868 822.903 408.738 822.583 408.596L823.862 404.246C824.832 404.506 825.696 404.619 826.454 404.583C827.212 404.548 827.88 404.264 828.46 403.731C829.052 403.198 829.573 402.328 830.023 401.121L830.68 399.31L820.701 371.682H826.383L833.29 392.847H833.574L840.481 371.682H846.181L834.941 402.595C834.42 404.015 833.758 405.216 832.953 406.199C832.148 407.193 831.189 407.939 830.076 408.436C828.964 408.933 827.673 409.182 826.205 409.182ZM676.909 468.955V432.591H682.395V448.394H700.524V432.591H706.028V468.955H700.524V453.099H682.395V468.955H676.909ZM730.08 469.505C727.523 469.505 725.292 468.919 723.386 467.747C721.48 466.575 720 464.936 718.947 462.829C717.893 460.722 717.367 458.26 717.367 455.443C717.367 452.613 717.893 450.139 718.947 448.021C720 445.902 721.48 444.256 723.386 443.085C725.292 441.913 727.523 441.327 730.08 441.327C732.637 441.327 734.868 441.913 736.774 443.085C738.679 444.256 740.159 445.902 741.213 448.021C742.266 450.139 742.793 452.613 742.793 455.443C742.793 458.26 742.266 460.722 741.213 462.829C740.159 464.936 738.679 466.575 736.774 467.747C734.868 468.919 732.637 469.505 730.08 469.505ZM730.098 465.048C731.755 465.048 733.128 464.61 734.217 463.734C735.306 462.858 736.111 461.693 736.632 460.237C737.164 458.781 737.431 457.177 737.431 455.425C737.431 453.685 737.164 452.087 736.632 450.631C736.111 449.163 735.306 447.985 734.217 447.097C733.128 446.21 731.755 445.766 730.098 445.766C728.428 445.766 727.044 446.21 725.943 447.097C724.854 447.985 724.043 449.163 723.51 450.631C722.989 452.087 722.729 453.685 722.729 455.425C722.729 457.177 722.989 458.781 723.51 460.237C724.043 461.693 724.854 462.858 725.943 463.734C727.044 464.61 728.428 465.048 730.098 465.048ZM770.995 457.644V441.682H776.322V468.955H771.102V464.232H770.818C770.19 465.688 769.184 466.901 767.799 467.871C766.426 468.83 764.715 469.31 762.668 469.31C760.916 469.31 759.365 468.925 758.016 468.156C756.678 467.374 755.625 466.22 754.855 464.693C754.098 463.166 753.719 461.278 753.719 459.029V441.682H759.028V458.39C759.028 460.248 759.543 461.728 760.572 462.829C761.602 463.93 762.94 464.48 764.585 464.48C765.58 464.48 766.568 464.232 767.55 463.734C768.545 463.237 769.367 462.486 770.019 461.479C770.681 460.473 771.007 459.195 770.995 457.644ZM808.892 448.34L804.08 449.193C803.879 448.577 803.559 447.991 803.121 447.435C802.695 446.878 802.115 446.423 801.381 446.068C800.647 445.712 799.73 445.535 798.629 445.535C797.126 445.535 795.871 445.872 794.865 446.547C793.859 447.21 793.356 448.068 793.356 449.121C793.356 450.033 793.693 450.767 794.368 451.323C795.042 451.88 796.131 452.335 797.635 452.69L801.967 453.685C804.477 454.265 806.347 455.158 807.578 456.366C808.809 457.573 809.425 459.142 809.425 461.071C809.425 462.705 808.951 464.161 808.004 465.439C807.069 466.706 805.761 467.7 804.08 468.422C802.411 469.144 800.476 469.505 798.274 469.505C795.22 469.505 792.728 468.854 790.799 467.552C788.869 466.238 787.686 464.374 787.248 461.959L792.379 461.178C792.699 462.515 793.356 463.527 794.35 464.214C795.344 464.889 796.64 465.226 798.239 465.226C799.979 465.226 801.369 464.865 802.411 464.143C803.453 463.409 803.974 462.515 803.974 461.462C803.974 460.609 803.654 459.893 803.015 459.313C802.387 458.733 801.423 458.295 800.121 457.999L795.504 456.987C792.959 456.407 791.077 455.484 789.858 454.217C788.65 452.951 788.047 451.347 788.047 449.406C788.047 447.796 788.497 446.387 789.396 445.18C790.296 443.972 791.539 443.031 793.125 442.357C794.711 441.67 796.528 441.327 798.576 441.327C801.523 441.327 803.843 441.966 805.536 443.244C807.229 444.511 808.347 446.21 808.892 448.34ZM832.016 469.505C829.329 469.505 827.015 468.931 825.074 467.783C823.144 466.623 821.653 464.995 820.599 462.9C819.557 460.793 819.037 458.325 819.037 455.496C819.037 452.702 819.557 450.24 820.599 448.109C821.653 445.979 823.12 444.316 825.003 443.12C826.896 441.925 829.11 441.327 831.643 441.327C833.182 441.327 834.673 441.581 836.118 442.09C837.562 442.599 838.858 443.398 840.006 444.487C841.154 445.576 842.06 446.991 842.723 448.731C843.386 450.459 843.717 452.56 843.717 455.034V456.916H822.037V452.939H838.515C838.515 451.542 838.231 450.305 837.662 449.228C837.094 448.139 836.295 447.281 835.265 446.653C834.247 446.026 833.052 445.712 831.679 445.712C830.187 445.712 828.885 446.079 827.772 446.813C826.672 447.535 825.819 448.482 825.216 449.654C824.624 450.814 824.328 452.075 824.328 453.436V456.543C824.328 458.366 824.647 459.917 825.287 461.195C825.938 462.474 826.843 463.45 828.003 464.125C829.163 464.788 830.519 465.119 832.069 465.119C833.075 465.119 833.993 464.977 834.821 464.693C835.65 464.397 836.366 463.959 836.97 463.379C837.574 462.799 838.035 462.083 838.355 461.231L843.38 462.136C842.977 463.616 842.255 464.912 841.213 466.025C840.184 467.126 838.887 467.984 837.325 468.599C835.774 469.203 834.005 469.505 832.016 469.505ZM854.607 479.182V441.682H859.792V446.103H860.236C860.544 445.535 860.988 444.878 861.568 444.132C862.148 443.386 862.953 442.735 863.982 442.179C865.012 441.611 866.374 441.327 868.066 441.327C870.268 441.327 872.233 441.883 873.961 442.996C875.689 444.108 877.045 445.712 878.027 447.808C879.022 449.903 879.519 452.424 879.519 455.371C879.519 458.319 879.027 460.846 878.045 462.953C877.062 465.048 875.713 466.664 873.997 467.8C872.28 468.925 870.321 469.487 868.12 469.487C866.462 469.487 865.107 469.209 864.053 468.653C863.012 468.096 862.195 467.445 861.603 466.7C861.011 465.954 860.556 465.291 860.236 464.711H859.916V479.182H854.607ZM859.81 455.318C859.81 457.236 860.088 458.917 860.644 460.361C861.201 461.805 862.006 462.935 863.059 463.752C864.113 464.557 865.403 464.96 866.93 464.96C868.516 464.96 869.842 464.539 870.907 463.699C871.973 462.847 872.777 461.693 873.322 460.237C873.878 458.781 874.156 457.141 874.156 455.318C874.156 453.519 873.884 451.903 873.34 450.471C872.807 449.039 872.002 447.908 870.925 447.08C869.86 446.251 868.528 445.837 866.93 445.837C865.391 445.837 864.089 446.233 863.024 447.026C861.97 447.819 861.171 448.926 860.627 450.347C860.082 451.767 859.81 453.424 859.81 455.318ZM895.776 432.591V468.955H890.467V432.591H895.776ZM915.855 469.558C914.127 469.558 912.564 469.239 911.167 468.599C909.771 467.948 908.664 467.007 907.847 465.776C907.042 464.545 906.64 463.036 906.64 461.249C906.64 459.71 906.936 458.443 907.527 457.449C908.119 456.455 908.918 455.667 909.924 455.087C910.931 454.507 912.055 454.069 913.298 453.773C914.541 453.478 915.807 453.253 917.098 453.099C918.731 452.909 920.057 452.755 921.075 452.637C922.093 452.507 922.833 452.3 923.294 452.016C923.756 451.732 923.987 451.27 923.987 450.631V450.506C923.987 448.956 923.549 447.754 922.673 446.902C921.809 446.05 920.519 445.624 918.802 445.624C917.015 445.624 915.606 446.02 914.576 446.813C913.558 447.595 912.854 448.465 912.463 449.423L907.474 448.287C908.066 446.63 908.93 445.292 910.066 444.274C911.215 443.244 912.534 442.499 914.026 442.037C915.517 441.563 917.086 441.327 918.731 441.327C919.82 441.327 920.974 441.457 922.194 441.717C923.425 441.966 924.573 442.428 925.638 443.102C926.715 443.777 927.597 444.742 928.284 445.996C928.97 447.239 929.314 448.855 929.314 450.844V468.955H924.129V465.226H923.916C923.573 465.912 923.058 466.587 922.371 467.25C921.685 467.913 920.803 468.463 919.726 468.901C918.648 469.339 917.358 469.558 915.855 469.558ZM917.009 465.297C918.477 465.297 919.731 465.007 920.773 464.427C921.827 463.847 922.626 463.089 923.17 462.154C923.726 461.207 924.005 460.195 924.005 459.118V455.602C923.815 455.792 923.448 455.969 922.904 456.135C922.371 456.289 921.762 456.425 921.075 456.543C920.388 456.65 919.72 456.751 919.069 456.845C918.418 456.928 917.873 456.999 917.435 457.058C916.405 457.188 915.464 457.407 914.612 457.715C913.771 458.023 913.097 458.467 912.588 459.047C912.091 459.615 911.842 460.373 911.842 461.32C911.842 462.634 912.327 463.628 913.298 464.303C914.269 464.965 915.506 465.297 917.009 465.297ZM946.694 452.761V468.955H941.385V441.682H946.481V446.121H946.818C947.445 444.677 948.428 443.517 949.765 442.641C951.115 441.765 952.814 441.327 954.861 441.327C956.72 441.327 958.347 441.717 959.744 442.499C961.141 443.268 962.224 444.416 962.993 445.943C963.763 447.47 964.148 449.358 964.148 451.607V468.955H958.839V452.246C958.839 450.27 958.324 448.725 957.294 447.612C956.264 446.488 954.85 445.925 953.05 445.925C951.819 445.925 950.724 446.192 949.765 446.724C948.819 447.257 948.067 448.038 947.511 449.068C946.966 450.086 946.694 451.317 946.694 452.761ZM988.998 441.682V445.943H974.101V441.682H988.998ZM978.096 435.148H983.405V460.947C983.405 461.977 983.559 462.752 983.867 463.273C984.175 463.782 984.571 464.131 985.057 464.32C985.554 464.498 986.092 464.587 986.672 464.587C987.099 464.587 987.471 464.557 987.791 464.498C988.111 464.439 988.359 464.391 988.537 464.356L989.496 468.742C989.188 468.86 988.75 468.978 988.182 469.097C987.614 469.227 986.903 469.298 986.051 469.31C984.654 469.333 983.352 469.085 982.145 468.564C980.937 468.043 979.961 467.238 979.215 466.149C978.469 465.06 978.096 463.693 978.096 462.048V435.148Z" fill="#282F4A"/>
<rect x="1181.5" y="242.5" width="475" height="475" rx="28.5" fill="#FFECDD" stroke="#282F4A" stroke-width="3"/>
<path d="M1242.18 402.377V366.014H1255.14C1257.97 366.014 1260.31 366.529 1262.17 367.559C1264.03 368.588 1265.42 369.997 1266.34 371.784C1267.26 373.56 1267.73 375.56 1267.73 377.786C1267.73 380.023 1267.26 382.035 1266.32 383.823C1265.4 385.598 1264 387.007 1262.13 388.049C1260.27 389.078 1257.94 389.593 1255.12 389.593H1246.21V384.941H1254.62C1256.41 384.941 1257.86 384.634 1258.97 384.018C1260.09 383.391 1260.9 382.538 1261.42 381.461C1261.94 380.384 1262.2 379.159 1262.2 377.786C1262.2 376.413 1261.94 375.193 1261.42 374.128C1260.9 373.063 1260.08 372.228 1258.95 371.625C1257.84 371.021 1256.37 370.719 1254.55 370.719H1247.66V402.377H1242.18ZM1290.14 402.928C1287.46 402.928 1285.14 402.354 1283.2 401.206C1281.27 400.046 1279.78 398.418 1278.73 396.323C1277.69 394.216 1277.17 391.748 1277.17 388.919C1277.17 386.125 1277.69 383.663 1278.73 381.532C1279.78 379.402 1281.25 377.738 1283.13 376.543C1285.02 375.347 1287.24 374.75 1289.77 374.75C1291.31 374.75 1292.8 375.004 1294.25 375.513C1295.69 376.022 1296.99 376.821 1298.13 377.91C1299.28 378.999 1300.19 380.414 1300.85 382.154C1301.51 383.882 1301.85 385.983 1301.85 388.457V390.339H1280.17V386.362H1296.64C1296.64 384.965 1296.36 383.728 1295.79 382.651C1295.22 381.562 1294.42 380.704 1293.39 380.076C1292.38 379.449 1291.18 379.135 1289.81 379.135C1288.32 379.135 1287.01 379.502 1285.9 380.236C1284.8 380.958 1283.95 381.905 1283.34 383.077C1282.75 384.237 1282.46 385.498 1282.46 386.859V389.966C1282.46 391.789 1282.78 393.34 1283.42 394.618C1284.07 395.897 1284.97 396.873 1286.13 397.548C1287.29 398.211 1288.65 398.542 1290.2 398.542C1291.2 398.542 1292.12 398.4 1292.95 398.116C1293.78 397.82 1294.49 397.382 1295.1 396.802C1295.7 396.222 1296.16 395.506 1296.48 394.654L1301.51 395.559C1301.11 397.039 1300.38 398.335 1299.34 399.448C1298.31 400.549 1297.02 401.407 1295.45 402.022C1293.9 402.626 1292.13 402.928 1290.14 402.928ZM1312.74 402.377V375.105H1317.87V379.437H1318.15C1318.65 377.969 1319.52 376.815 1320.78 375.975C1322.05 375.122 1323.48 374.696 1325.08 374.696C1325.41 374.696 1325.8 374.708 1326.25 374.732C1326.71 374.756 1327.07 374.785 1327.33 374.821V379.899C1327.12 379.84 1326.74 379.774 1326.19 379.703C1325.65 379.621 1325.11 379.579 1324.56 379.579C1323.31 379.579 1322.19 379.845 1321.21 380.378C1320.23 380.899 1319.47 381.627 1318.9 382.562C1318.33 383.485 1318.04 384.539 1318.04 385.723V402.377H1312.74ZM1357.36 381.763L1352.55 382.615C1352.35 382 1352.03 381.414 1351.59 380.858C1351.17 380.301 1350.59 379.845 1349.85 379.49C1349.12 379.135 1348.2 378.958 1347.1 378.958C1345.6 378.958 1344.34 379.295 1343.34 379.97C1342.33 380.633 1341.83 381.491 1341.83 382.544C1341.83 383.456 1342.16 384.19 1342.84 384.746C1343.51 385.302 1344.6 385.758 1346.11 386.113L1350.44 387.108C1352.95 387.688 1354.82 388.581 1356.05 389.789C1357.28 390.996 1357.89 392.564 1357.89 394.494C1357.89 396.127 1357.42 397.583 1356.47 398.862C1355.54 400.128 1354.23 401.123 1352.55 401.845C1350.88 402.567 1348.95 402.928 1346.74 402.928C1343.69 402.928 1341.2 402.277 1339.27 400.975C1337.34 399.661 1336.16 397.796 1335.72 395.382L1340.85 394.6C1341.17 395.938 1341.83 396.95 1342.82 397.637C1343.81 398.311 1345.11 398.649 1346.71 398.649C1348.45 398.649 1349.84 398.288 1350.88 397.566C1351.92 396.832 1352.44 395.938 1352.44 394.885C1352.44 394.032 1352.12 393.316 1351.48 392.736C1350.86 392.156 1349.89 391.718 1348.59 391.422L1343.97 390.41C1341.43 389.83 1339.55 388.907 1338.33 387.64C1337.12 386.374 1336.52 384.77 1336.52 382.828C1336.52 381.219 1336.97 379.81 1337.87 378.603C1338.77 377.395 1340.01 376.454 1341.6 375.779C1343.18 375.093 1345 374.75 1347.05 374.75C1349.99 374.75 1352.31 375.389 1354.01 376.667C1355.7 377.934 1356.82 379.632 1357.36 381.763ZM1380.22 402.928C1377.66 402.928 1375.43 402.342 1373.53 401.17C1371.62 399.998 1370.14 398.359 1369.09 396.252C1368.03 394.145 1367.51 391.683 1367.51 388.865C1367.51 386.036 1368.03 383.562 1369.09 381.443C1370.14 379.325 1371.62 377.679 1373.53 376.507C1375.43 375.336 1377.66 374.75 1380.22 374.75C1382.78 374.75 1385.01 375.336 1386.91 376.507C1388.82 377.679 1390.3 379.325 1391.35 381.443C1392.41 383.562 1392.93 386.036 1392.93 388.865C1392.93 391.683 1392.41 394.145 1391.35 396.252C1390.3 398.359 1388.82 399.998 1386.91 401.17C1385.01 402.342 1382.78 402.928 1380.22 402.928ZM1380.24 398.471C1381.89 398.471 1383.27 398.033 1384.36 397.157C1385.45 396.281 1386.25 395.115 1386.77 393.659C1387.3 392.203 1387.57 390.6 1387.57 388.848C1387.57 387.108 1387.3 385.51 1386.77 384.054C1386.25 382.586 1385.45 381.408 1384.36 380.52C1383.27 379.632 1381.89 379.189 1380.24 379.189C1378.57 379.189 1377.18 379.632 1376.08 380.52C1374.99 381.408 1374.18 382.586 1373.65 384.054C1373.13 385.51 1372.87 387.108 1372.87 388.848C1372.87 390.6 1373.13 392.203 1373.65 393.659C1374.18 395.115 1374.99 396.281 1376.08 397.157C1377.18 398.033 1378.57 398.471 1380.24 398.471ZM1409.17 386.184V402.377H1403.86V375.105H1408.95V379.544H1409.29C1409.92 378.1 1410.9 376.939 1412.24 376.064C1413.59 375.188 1415.29 374.75 1417.34 374.75C1419.19 374.75 1420.82 375.14 1422.22 375.921C1423.62 376.691 1424.7 377.839 1425.47 379.366C1426.24 380.893 1426.62 382.781 1426.62 385.03V402.377H1421.31V385.669C1421.31 383.693 1420.8 382.148 1419.77 381.035C1418.74 379.911 1417.32 379.348 1415.52 379.348C1414.29 379.348 1413.2 379.615 1412.24 380.147C1411.29 380.68 1410.54 381.461 1409.98 382.491C1409.44 383.509 1409.17 384.74 1409.17 386.184ZM1446.68 402.981C1444.95 402.981 1443.39 402.662 1441.99 402.022C1440.59 401.371 1439.49 400.43 1438.67 399.199C1437.87 397.968 1437.46 396.459 1437.46 394.671C1437.46 393.133 1437.76 391.866 1438.35 390.872C1438.94 389.877 1439.74 389.09 1440.75 388.51C1441.75 387.93 1442.88 387.492 1444.12 387.196C1445.36 386.9 1446.63 386.675 1447.92 386.522C1449.55 386.332 1450.88 386.178 1451.9 386.06C1452.92 385.93 1453.66 385.723 1454.12 385.439C1454.58 385.154 1454.81 384.693 1454.81 384.054V383.929C1454.81 382.379 1454.37 381.177 1453.5 380.325C1452.63 379.473 1451.34 379.046 1449.63 379.046C1447.84 379.046 1446.43 379.443 1445.4 380.236C1444.38 381.017 1443.68 381.887 1443.29 382.846L1438.3 381.71C1438.89 380.053 1439.75 378.715 1440.89 377.697C1442.04 376.667 1443.36 375.921 1444.85 375.46C1446.34 374.986 1447.91 374.75 1449.55 374.75C1450.64 374.75 1451.8 374.88 1453.02 375.14C1454.25 375.389 1455.4 375.85 1456.46 376.525C1457.54 377.2 1458.42 378.165 1459.11 379.419C1459.79 380.662 1460.14 382.278 1460.14 384.267V402.377H1454.95V398.649H1454.74C1454.4 399.335 1453.88 400.01 1453.19 400.673C1452.51 401.336 1451.63 401.886 1450.55 402.324C1449.47 402.762 1448.18 402.981 1446.68 402.981ZM1447.83 398.72C1449.3 398.72 1450.56 398.43 1451.6 397.85C1452.65 397.27 1453.45 396.512 1453.99 395.577C1454.55 394.63 1454.83 393.618 1454.83 392.541V389.025C1454.64 389.215 1454.27 389.392 1453.73 389.558C1453.19 389.712 1452.59 389.848 1451.9 389.966C1451.21 390.073 1450.54 390.173 1449.89 390.268C1449.24 390.351 1448.7 390.422 1448.26 390.481C1447.23 390.611 1446.29 390.83 1445.44 391.138C1444.6 391.446 1443.92 391.89 1443.41 392.47C1442.91 393.038 1442.67 393.796 1442.67 394.742C1442.67 396.056 1443.15 397.051 1444.12 397.725C1445.09 398.388 1446.33 398.72 1447.83 398.72ZM1477.52 366.014V402.377H1472.21V366.014H1477.52ZM1249.3 472.377L1239.21 436.014H1244.98L1252.07 464.174H1252.4L1259.77 436.014H1265.49L1272.86 464.192H1273.19L1280.26 436.014H1286.05L1275.95 472.377H1270.42L1262.77 445.14H1262.49L1254.84 472.377H1249.3ZM1304.7 472.928C1302.01 472.928 1299.69 472.354 1297.75 471.206C1295.82 470.046 1294.33 468.418 1293.28 466.323C1292.24 464.216 1291.72 461.748 1291.72 458.919C1291.72 456.125 1292.24 453.663 1293.28 451.532C1294.33 449.402 1295.8 447.738 1297.68 446.543C1299.58 445.347 1301.79 444.75 1304.32 444.75C1305.86 444.75 1307.35 445.004 1308.8 445.513C1310.24 446.022 1311.54 446.821 1312.69 447.91C1313.83 448.999 1314.74 450.414 1315.4 452.154C1316.06 453.882 1316.4 455.983 1316.4 458.457V460.339H1294.72V456.362H1311.19C1311.19 454.965 1310.91 453.728 1310.34 452.651C1309.77 451.562 1308.97 450.704 1307.94 450.076C1306.93 449.449 1305.73 449.135 1304.36 449.135C1302.87 449.135 1301.56 449.502 1300.45 450.236C1299.35 450.958 1298.5 451.905 1297.89 453.077C1297.3 454.237 1297.01 455.498 1297.01 456.859V459.966C1297.01 461.789 1297.33 463.34 1297.97 464.618C1298.62 465.897 1299.52 466.873 1300.68 467.548C1301.84 468.211 1303.2 468.542 1304.75 468.542C1305.75 468.542 1306.67 468.4 1307.5 468.116C1308.33 467.82 1309.05 467.382 1309.65 466.802C1310.25 466.222 1310.71 465.506 1311.03 464.654L1316.06 465.559C1315.66 467.039 1314.93 468.335 1313.89 469.448C1312.86 470.549 1311.57 471.407 1310 472.022C1308.45 472.626 1306.68 472.928 1304.7 472.928ZM1327.71 472.377V436.014H1333.02V449.526H1333.34C1333.65 448.958 1334.09 448.301 1334.67 447.555C1335.25 446.809 1336.06 446.158 1337.09 445.602C1338.12 445.034 1339.48 444.75 1341.17 444.75C1343.37 444.75 1345.34 445.306 1347.07 446.419C1348.79 447.531 1350.15 449.135 1351.13 451.23C1352.13 453.326 1352.62 455.847 1352.62 458.794C1352.62 461.742 1352.13 464.269 1351.15 466.376C1350.17 468.471 1348.82 470.087 1347.1 471.223C1345.39 472.348 1343.43 472.91 1341.22 472.91C1339.57 472.91 1338.21 472.632 1337.16 472.076C1336.12 471.519 1335.3 470.868 1334.71 470.122C1334.12 469.377 1333.66 468.714 1333.34 468.134H1332.9V472.377H1327.71ZM1332.92 458.741C1332.92 460.659 1333.19 462.34 1333.75 463.784C1334.31 465.228 1335.11 466.358 1336.16 467.175C1337.22 467.98 1338.51 468.382 1340.04 468.382C1341.62 468.382 1342.95 467.962 1344.01 467.122C1345.08 466.269 1345.88 465.115 1346.43 463.659C1346.98 462.203 1347.26 460.564 1347.26 458.741C1347.26 456.942 1346.99 455.326 1346.45 453.894C1345.91 452.461 1345.11 451.331 1344.03 450.502C1342.96 449.674 1341.63 449.26 1340.04 449.26C1338.5 449.26 1337.19 449.656 1336.13 450.449C1335.08 451.242 1334.28 452.349 1333.73 453.769C1333.19 455.19 1332.92 456.847 1332.92 458.741ZM1384.02 451.763L1379.21 452.615C1379.01 452 1378.69 451.414 1378.25 450.858C1377.83 450.301 1377.25 449.845 1376.51 449.49C1375.78 449.135 1374.86 448.958 1373.76 448.958C1372.26 448.958 1371 449.295 1370 449.97C1368.99 450.633 1368.49 451.491 1368.49 452.544C1368.49 453.456 1368.82 454.19 1369.5 454.746C1370.17 455.302 1371.26 455.758 1372.77 456.113L1377.1 457.108C1379.61 457.688 1381.48 458.581 1382.71 459.789C1383.94 460.996 1384.55 462.564 1384.55 464.494C1384.55 466.127 1384.08 467.583 1383.13 468.862C1382.2 470.128 1380.89 471.123 1379.21 471.845C1377.54 472.567 1375.61 472.928 1373.4 472.928C1370.35 472.928 1367.86 472.277 1365.93 470.975C1364 469.661 1362.82 467.796 1362.38 465.382L1367.51 464.6C1367.83 465.938 1368.49 466.95 1369.48 467.637C1370.47 468.311 1371.77 468.649 1373.37 468.649C1375.11 468.649 1376.5 468.288 1377.54 467.566C1378.58 466.832 1379.1 465.938 1379.1 464.885C1379.1 464.032 1378.78 463.316 1378.15 462.736C1377.52 462.156 1376.55 461.718 1375.25 461.422L1370.63 460.41C1368.09 459.83 1366.21 458.907 1364.99 457.64C1363.78 456.374 1363.18 454.77 1363.18 452.828C1363.18 451.219 1363.63 449.81 1364.53 448.603C1365.43 447.395 1366.67 446.454 1368.26 445.779C1369.84 445.093 1371.66 444.75 1373.71 444.75C1376.65 444.75 1378.97 445.389 1380.67 446.667C1382.36 447.934 1383.48 449.632 1384.02 451.763ZM1395.39 472.377V445.105H1400.7V472.377H1395.39ZM1398.07 440.897C1397.15 440.897 1396.36 440.589 1395.69 439.973C1395.04 439.346 1394.72 438.6 1394.72 437.736C1394.72 436.86 1395.04 436.114 1395.69 435.499C1396.36 434.872 1397.15 434.558 1398.07 434.558C1399 434.558 1399.78 434.872 1400.43 435.499C1401.1 436.114 1401.43 436.86 1401.43 437.736C1401.43 438.6 1401.1 439.346 1400.43 439.973C1399.78 440.589 1399 440.897 1398.07 440.897ZM1425.57 445.105V449.366H1410.68V445.105H1425.57ZM1414.67 438.571H1419.98V464.37C1419.98 465.399 1420.13 466.175 1420.44 466.696C1420.75 467.205 1421.15 467.554 1421.63 467.743C1422.13 467.921 1422.67 468.01 1423.25 468.01C1423.67 468.01 1424.05 467.98 1424.37 467.921C1424.69 467.862 1424.93 467.814 1425.11 467.779L1426.07 472.164C1425.76 472.283 1425.33 472.401 1424.76 472.519C1424.19 472.65 1423.48 472.721 1422.63 472.733C1421.23 472.756 1419.93 472.508 1418.72 471.987C1417.51 471.466 1416.54 470.661 1415.79 469.572C1415.05 468.483 1414.67 467.116 1414.67 465.47V438.571ZM1447.91 472.928C1445.22 472.928 1442.91 472.354 1440.97 471.206C1439.04 470.046 1437.54 468.418 1436.49 466.323C1435.45 464.216 1434.93 461.748 1434.93 458.919C1434.93 456.125 1435.45 453.663 1436.49 451.532C1437.54 449.402 1439.01 447.738 1440.89 446.543C1442.79 445.347 1445 444.75 1447.54 444.75C1449.07 444.75 1450.57 445.004 1452.01 445.513C1453.45 446.022 1454.75 446.821 1455.9 447.91C1457.05 448.999 1457.95 450.414 1458.61 452.154C1459.28 453.882 1459.61 455.983 1459.61 458.457V460.339H1437.93V456.362H1454.41C1454.41 454.965 1454.12 453.728 1453.55 452.651C1452.99 451.562 1452.19 450.704 1451.16 450.076C1450.14 449.449 1448.94 449.135 1447.57 449.135C1446.08 449.135 1444.78 449.502 1443.66 450.236C1442.56 450.958 1441.71 451.905 1441.11 453.077C1440.52 454.237 1440.22 455.498 1440.22 456.859V459.966C1440.22 461.789 1440.54 463.34 1441.18 464.618C1441.83 465.897 1442.74 466.873 1443.9 467.548C1445.06 468.211 1446.41 468.542 1447.96 468.542C1448.97 468.542 1449.88 468.4 1450.71 468.116C1451.54 467.82 1452.26 467.382 1452.86 466.802C1453.47 466.222 1453.93 465.506 1454.25 464.654L1459.27 465.559C1458.87 467.039 1458.15 468.335 1457.11 469.448C1456.08 470.549 1454.78 471.407 1453.22 472.022C1451.67 472.626 1449.9 472.928 1447.91 472.928Z" fill="#282F4A"/>
<rect x="675.682" y="526.5" width="176.107" height="63.1671" rx="31.5835" fill="#FFD8B9" stroke="#35284A" stroke-width="3"/>
<path d="M724.582 563.563H718.696V545.382H724.768C726.55 545.382 728.079 545.746 729.358 546.474C730.636 547.196 731.616 548.234 732.296 549.59C732.983 550.939 733.326 552.558 733.326 554.446C733.326 556.34 732.98 557.967 732.288 559.329C731.601 560.69 730.607 561.738 729.305 562.472C728.003 563.199 726.428 563.563 724.582 563.563ZM721.439 561.166H724.431C725.816 561.166 726.967 560.906 727.884 560.385C728.802 559.858 729.488 559.098 729.944 558.104C730.4 557.103 730.627 555.884 730.627 554.446C730.627 553.02 730.4 551.809 729.944 550.815C729.494 549.821 728.822 549.066 727.929 548.551C727.035 548.036 725.925 547.779 724.599 547.779H721.439V561.166ZM744.902 563.839C743.558 563.839 742.401 563.552 741.43 562.978C740.466 562.398 739.72 561.584 739.193 560.536C738.672 559.483 738.412 558.249 738.412 556.834C738.412 555.437 738.672 554.206 739.193 553.141C739.72 552.076 740.454 551.244 741.395 550.646C742.342 550.048 743.449 549.75 744.715 549.75C745.485 549.75 746.23 549.877 746.952 550.131C747.674 550.386 748.323 550.785 748.897 551.33C749.471 551.874 749.924 552.582 750.255 553.452C750.586 554.316 750.752 555.366 750.752 556.603V557.544H739.912V555.556H748.151C748.151 554.857 748.009 554.239 747.725 553.7C747.441 553.156 747.041 552.727 746.526 552.413C746.017 552.099 745.42 551.942 744.733 551.942C743.987 551.942 743.336 552.126 742.78 552.493C742.229 552.854 741.803 553.327 741.501 553.913C741.206 554.493 741.058 555.124 741.058 555.804V557.358C741.058 558.269 741.217 559.045 741.537 559.684C741.862 560.323 742.315 560.811 742.895 561.149C743.475 561.48 744.153 561.646 744.928 561.646C745.431 561.646 745.89 561.575 746.304 561.433C746.719 561.285 747.077 561.066 747.379 560.776C747.68 560.486 747.911 560.128 748.071 559.702L750.583 560.154C750.382 560.894 750.021 561.542 749.5 562.099C748.985 562.649 748.337 563.078 747.556 563.386C746.781 563.688 745.896 563.839 744.902 563.839ZM766.416 553.256L764.01 553.682C763.909 553.375 763.749 553.082 763.53 552.804C763.317 552.525 763.027 552.297 762.66 552.12C762.293 551.942 761.835 551.854 761.284 551.854C760.533 551.854 759.905 552.022 759.402 552.36C758.899 552.691 758.648 553.12 758.648 553.647C758.648 554.103 758.816 554.47 759.154 554.748C759.491 555.026 760.036 555.254 760.787 555.431L762.953 555.929C764.208 556.219 765.143 556.665 765.759 557.269C766.374 557.873 766.682 558.657 766.682 559.622C766.682 560.438 766.445 561.166 765.972 561.806C765.504 562.439 764.85 562.936 764.01 563.297C763.175 563.658 762.208 563.839 761.107 563.839C759.58 563.839 758.334 563.513 757.369 562.862C756.405 562.205 755.813 561.273 755.594 560.066L758.159 559.675C758.319 560.344 758.648 560.85 759.145 561.193C759.642 561.53 760.29 561.699 761.089 561.699C761.959 561.699 762.655 561.519 763.175 561.158C763.696 560.791 763.957 560.344 763.957 559.817C763.957 559.391 763.797 559.033 763.477 558.743C763.164 558.453 762.681 558.234 762.03 558.086L759.722 557.58C758.449 557.29 757.508 556.828 756.899 556.195C756.295 555.562 755.993 554.76 755.993 553.789C755.993 552.984 756.218 552.28 756.668 551.676C757.118 551.072 757.739 550.602 758.532 550.264C759.325 549.921 760.234 549.75 761.258 549.75C762.731 549.75 763.891 550.069 764.738 550.708C765.584 551.342 766.144 552.191 766.416 553.256ZM772.101 563.563V549.927H774.755V563.563H772.101ZM773.441 547.823C772.98 547.823 772.583 547.669 772.252 547.361C771.926 547.048 771.763 546.675 771.763 546.243C771.763 545.805 771.926 545.432 772.252 545.124C772.583 544.811 772.98 544.654 773.441 544.654C773.903 544.654 774.296 544.811 774.622 545.124C774.953 545.432 775.119 545.805 775.119 546.243C775.119 546.675 774.953 547.048 774.622 547.361C774.296 547.669 773.903 547.823 773.441 547.823ZM786.544 568.961C785.461 568.961 784.528 568.819 783.747 568.535C782.972 568.251 782.338 567.875 781.847 567.408C781.356 566.94 780.989 566.428 780.746 565.872L783.028 564.931C783.188 565.191 783.401 565.466 783.667 565.756C783.939 566.052 784.306 566.304 784.768 566.511C785.236 566.718 785.836 566.822 786.57 566.822C787.576 566.822 788.408 566.576 789.065 566.085C789.722 565.599 790.05 564.824 790.05 563.759V561.078H789.882C789.722 561.368 789.491 561.69 789.189 562.045C788.893 562.4 788.485 562.708 787.964 562.969C787.443 563.229 786.766 563.359 785.931 563.359C784.854 563.359 783.883 563.108 783.019 562.605C782.161 562.096 781.48 561.347 780.977 560.359C780.48 559.364 780.231 558.142 780.231 556.692C780.231 555.242 780.477 553.999 780.968 552.963C781.465 551.928 782.146 551.134 783.01 550.584C783.874 550.028 784.854 549.75 785.949 549.75C786.795 549.75 787.479 549.892 788 550.176C788.52 550.454 788.926 550.779 789.216 551.152C789.512 551.525 789.74 551.854 789.899 552.138H790.095V549.927H792.696V563.865C792.696 565.037 792.424 565.999 791.879 566.751C791.335 567.502 790.598 568.059 789.669 568.42C788.745 568.781 787.704 568.961 786.544 568.961ZM786.517 561.158C787.28 561.158 787.926 560.98 788.452 560.625C788.985 560.264 789.387 559.749 789.66 559.08C789.938 558.405 790.077 557.598 790.077 556.657C790.077 555.739 789.941 554.931 789.669 554.233C789.396 553.534 788.997 552.99 788.47 552.599C787.943 552.203 787.292 552.005 786.517 552.005C785.718 552.005 785.052 552.212 784.519 552.626C783.987 553.034 783.584 553.591 783.312 554.295C783.046 554.999 782.913 555.786 782.913 556.657C782.913 557.55 783.049 558.334 783.321 559.009C783.593 559.684 783.996 560.211 784.528 560.589C785.067 560.968 785.73 561.158 786.517 561.158ZM801.41 555.467V563.563H798.756V549.927H801.304V552.147H801.473C801.786 551.425 802.278 550.844 802.946 550.407C803.621 549.969 804.47 549.75 805.494 549.75C806.423 549.75 807.237 549.945 807.936 550.335C808.634 550.72 809.176 551.294 809.56 552.058C809.945 552.821 810.137 553.765 810.137 554.89V563.563H807.483V555.209C807.483 554.221 807.225 553.449 806.711 552.892C806.196 552.33 805.488 552.049 804.589 552.049C803.973 552.049 803.426 552.182 802.946 552.448C802.473 552.715 802.097 553.105 801.819 553.62C801.547 554.129 801.41 554.745 801.41 555.467Z" fill="#35284A"/>
</svg>
